<svg width="139" height="32" viewBox="0 0 139 32" fill="none" xmlns="http://www.w3.org/2000/svg">
<mask id="mask0_2057_14126" style="mask-type:luminance" maskUnits="userSpaceOnUse" x="0" y="0" width="21" height="25">
<path d="M8.58848 24.5796L5.06609 12.9805L5.03198 24.5625H2.42218C1.08316 24.554 0 23.4708 0 22.1318L0.0597012 0.0849609L3.29211 0.093472C4.17057 0.093472 4.99787 0.502851 5.52665 1.21074L10.2942 7.55615L14.9595 1.26191C15.4883 0.545493 16.3241 0.127594 17.2111 0.127594L20.4179 0.136132L20.3667 22.183C20.3582 23.522 19.275 24.6052 17.936 24.6052L15.0959 24.5967L15.13 13.1596L12.1365 24.5881L8.58848 24.5796Z" fill="white"/>
</mask>
<g mask="url(#mask0_2057_14126)">
<mask id="mask1_2057_14126" style="mask-type:luminance" maskUnits="userSpaceOnUse" x="-103" y="-86" width="335" height="204">
<path d="M-102.08 116.707L231.216 117.603L231.762 -84.4268L-101.534 -85.3223L-102.08 116.707Z" fill="white"/>
</mask>
<g mask="url(#mask1_2057_14126)">
<mask id="mask2_2057_14126" style="mask-type:luminance" maskUnits="userSpaceOnUse" x="-1" y="-1" width="22" height="27">
<path d="M-0.392578 25.0143L20.81 25.074L20.8782 -0.24791L-0.324346 -0.307617L-0.392578 25.0143Z" fill="white"/>
</mask>
<g mask="url(#mask2_2057_14126)">
<mask id="mask3_2057_14126" style="mask-type:luminance" maskUnits="userSpaceOnUse" x="0" y="0" width="21" height="25">
<path d="M0 24.6298L20.4264 24.681L20.4947 0.135155L0.0597012 0.0839844L0 24.6298Z" fill="white"/>
</mask>
<g mask="url(#mask3_2057_14126)">
<path d="M-0.349609 -0.342773L20.8018 -0.257506L20.7165 24.9877L-0.349609 24.9024V-0.342773Z" fill="#135BF2"/>
<path d="M-0.0078125 24.6469H20.4613V0.169251L0.0774805 0.0839844L-0.0078125 24.6469Z" fill="#135BF2"/>
</g>
<path d="M-0.435547 24.9887L20.8011 25.0739L20.8864 -0.25653L-0.350254 -0.341797L-0.435547 24.9887Z" fill="#135BF2"/>
</g>
<path d="M-102.098 116.673L231.207 117.612L231.719 -84.4352L-101.501 -85.2881L-102.098 116.673Z" fill="#135BF2"/>
</g>
<path d="M8.60626 24.5625L5.02417 12.9634V24.5625H2.38025C1.10093 24.5625 -0.0078125 23.4538 -0.0078125 22.0892L0.0774805 0.0849609H3.31841C4.17129 0.0849609 5.02417 0.511389 5.53589 1.19369L10.312 7.59027L14.9175 1.27898C15.5146 0.511395 16.2821 0.0849401 17.2203 0.170228H20.4613L20.376 22.1745C20.376 23.5391 19.2672 24.5625 17.9026 24.5625H15.0881V13.134L12.1031 24.5625H8.60626Z" fill="#135BF2"/>
</g>
<mask id="mask4_2057_14126" style="mask-type:luminance" maskUnits="userSpaceOnUse" x="21" y="7" width="17" height="25">
<path d="M28.1886 32.0003H25.5105L27.5489 25.9364L21.9199 7.53125L25.1182 7.53979C26.4061 7.53979 27.5233 8.41825 27.8304 9.67198L29.9881 18.4993L32.2056 9.68052C32.5127 8.43532 33.6385 7.55684 34.9178 7.56537L37.9028 7.57391L30.8581 30.0472C30.4913 31.2157 29.4082 32.0088 28.1886 32.0003Z" fill="white"/>
</mask>
<g mask="url(#mask4_2057_14126)">
<mask id="mask5_2057_14126" style="mask-type:luminance" maskUnits="userSpaceOnUse" x="-103" y="-86" width="335" height="204">
<path d="M-102.08 116.708L231.216 117.604L231.762 -84.4258L-101.534 -85.3213L-102.08 116.708Z" fill="white"/>
</mask>
<g mask="url(#mask5_2057_14126)">
<path d="M21.5697 7.16504H38.2861L38.2008 32.4102H21.4844L21.5697 7.16504Z" fill="#135BF2"/>
<path d="M-102.098 116.674L231.207 117.612L231.719 -84.4342L-101.501 -85.2871L-102.098 116.674Z" fill="#135BF2"/>
</g>
<path d="M28.2215 31.9835H25.4923L27.5392 25.928L21.9102 7.50586H25.1511C26.4304 7.50586 27.5392 8.44402 27.795 9.63805L30.0125 18.508L32.23 9.63805C32.4858 8.44402 33.5946 7.59115 34.9592 7.59115H37.9443L30.8654 30.0218C30.5242 31.2159 29.4155 31.9835 28.2215 31.9835Z" fill="#135BF2"/>
</g>
<mask id="mask6_2057_14126" style="mask-type:luminance" maskUnits="userSpaceOnUse" x="34" y="0" width="18" height="25">
<path d="M34.3535 5.01526L34.3706 0.170898L51.0017 0.222069L50.9932 2.269C50.9846 3.8127 49.7309 5.0579 48.1872 5.0579L45.3897 5.04936L45.3471 21.8766C45.3386 23.4204 44.0848 24.6741 42.5411 24.6655L39.9313 24.657L39.9825 5.03231L34.3535 5.01526Z" fill="white"/>
</mask>
<g mask="url(#mask6_2057_14126)">
<mask id="mask7_2057_14126" style="mask-type:luminance" maskUnits="userSpaceOnUse" x="-103" y="-86" width="335" height="204">
<path d="M-102.082 116.708L231.214 117.604L231.76 -84.4258L-101.536 -85.3213L-102.082 116.708Z" fill="white"/>
</mask>
<g mask="url(#mask7_2057_14126)">
<path d="M34.0208 -0.254883L51.4195 -0.16959L51.3342 25.0756H33.9355L34.0208 -0.254883Z" fill="#4A4D4D"/>
</g>
<path d="M34.3613 5.03231V0.170898L50.9924 0.256191V2.30309C50.9924 3.83827 49.7131 5.03231 48.1779 5.03231H45.3634V21.9193C45.3634 23.4545 44.0841 24.6485 42.549 24.6485H39.905L39.9903 5.03231H34.3613Z" fill="#4A4D4D"/>
</g>
<mask id="mask8_2057_14126" style="mask-type:luminance" maskUnits="userSpaceOnUse" x="52" y="0" width="7" height="6">
<path d="M52.5704 3.08761C52.5704 2.29728 52.8518 1.62351 53.4147 1.0663C53.972 0.509085 54.6486 0.230469 55.4446 0.230469C56.2406 0.230469 56.9172 0.51191 57.4744 1.07481C58.0317 1.63202 58.3103 2.30864 58.3103 3.10466C58.3103 3.90068 58.0288 4.5773 57.4659 5.13452C56.903 5.69173 56.2236 5.97035 55.4275 5.97035C54.6372 5.96466 53.9606 5.68319 53.3977 5.12598C52.8405 4.56308 52.5647 3.88363 52.5704 3.08761Z" fill="white"/>
</mask>
<g mask="url(#mask8_2057_14126)">
<mask id="mask9_2057_14126" style="mask-type:luminance" maskUnits="userSpaceOnUse" x="-103" y="-86" width="335" height="204">
<path d="M-102.082 116.707L231.214 117.603L231.76 -84.4268L-101.536 -85.3223L-102.082 116.707Z" fill="white"/>
</mask>
<g mask="url(#mask9_2057_14126)">
<path d="M52.1855 -0.170898H58.6674V6.39627L52.1855 6.31098V-0.170898Z" fill="#4A4D4D"/>
</g>
<path d="M52.5273 3.07037C52.5842 2.27435 52.8685 1.59203 53.3802 1.02344C53.9488 0.511717 54.6311 0.255859 55.4271 0.255859C56.2231 0.255859 56.9055 0.540152 57.474 1.10874C58.0426 1.62046 58.3269 2.27435 58.3269 3.07037C58.3269 3.86639 58.0426 4.54869 57.474 5.11727C56.9055 5.68586 56.2231 5.97015 55.4271 5.97015C54.6311 5.97015 53.9488 5.68586 53.3802 5.11727C52.8116 4.54869 52.5273 3.86639 52.5273 3.07037Z" fill="#4A4D4D"/>
</g>
<mask id="mask10_2057_14126" style="mask-type:luminance" maskUnits="userSpaceOnUse" x="52" y="7" width="7" height="18">
<path d="M55.5998 7.30864L58.0305 7.31715L57.9879 21.9014C57.9879 23.4451 56.7256 24.6903 55.1819 24.6903L52.7598 24.6818L52.8024 10.0975C52.8024 8.55383 54.0561 7.30011 55.5998 7.30864Z" fill="white"/>
</mask>
<g mask="url(#mask10_2057_14126)">
<mask id="mask11_2057_14126" style="mask-type:luminance" maskUnits="userSpaceOnUse" x="-103" y="-86" width="335" height="204">
<path d="M-102.08 116.707L231.216 117.603L231.762 -84.4268L-101.534 -85.3223L-102.08 116.707Z" fill="white"/>
</mask>
<g mask="url(#mask11_2057_14126)">
<path d="M52.4447 6.9082H58.4148L58.3295 25.0745H52.3594L52.4447 6.9082Z" fill="#4A4D4D"/>
</g>
<path d="M55.5996 7.33398H57.9877V21.9182C57.9877 23.4534 56.7084 24.7327 55.1732 24.6474H52.7852V10.0632C52.7852 8.528 54.0645 7.33398 55.5996 7.33398Z" fill="#4A4D4D"/>
</g>
<mask id="mask12_2057_14126" style="mask-type:luminance" maskUnits="userSpaceOnUse" x="59" y="7" width="15" height="18">
<path d="M70.8921 17.8851H73.229L73.2205 18.0898C73.2205 20.1367 72.6035 21.7543 71.3697 22.9427C70.1416 24.131 68.504 24.7223 66.4571 24.7166C64.3875 24.7109 62.7187 24.0884 61.4507 22.8488C60.1828 21.6093 59.5488 19.9547 59.5488 17.8851L59.5659 14.1324C59.5716 12.0685 60.2112 10.4196 61.4849 9.18573C62.7642 7.94621 64.4358 7.32931 66.4998 7.335C68.5239 7.34069 70.1529 7.932 71.3868 9.10897C72.6263 10.2803 73.2432 11.8439 73.2375 13.7998C73.2318 13.8396 73.2091 13.8623 73.1693 13.868L68.632 13.851C68.5069 12.8559 68.3164 12.2248 68.0605 11.9576C67.6739 11.5596 67.1508 11.3606 66.4913 11.3606C65.8317 11.3606 65.3086 11.5852 64.922 12.0343C64.5353 12.4892 64.3392 13.0805 64.3335 13.8083L64.3249 18.2348C64.3249 18.9626 64.5154 19.5539 64.8964 20.0087C65.283 20.4693 65.8061 20.6996 66.4657 20.6996C67.1252 20.6996 67.6483 20.5006 68.035 20.1026C68.1202 20.0173 68.1998 19.8808 68.2738 19.6932C68.6831 18.6015 69.7237 17.8766 70.8921 17.8851Z" fill="white"/>
</mask>
<g mask="url(#mask12_2057_14126)">
<mask id="mask13_2057_14126" style="mask-type:luminance" maskUnits="userSpaceOnUse" x="-103" y="-86" width="335" height="204">
<path d="M-102.08 116.708L231.216 117.604L231.762 -84.4258L-101.534 -85.3213L-102.08 116.708Z" fill="white"/>
</mask>
<g mask="url(#mask13_2057_14126)">
<path d="M59.1816 6.90918L73.6806 6.99445L73.5953 25.1608L59.1816 25.0755V6.90918Z" fill="#4A4D4D"/>
</g>
<path d="M70.8667 17.9106H73.2548V18.0812C73.2548 20.1281 72.6293 21.7486 71.3784 22.9426C70.1275 24.1366 68.4787 24.7337 66.4318 24.7337C64.3848 24.7337 62.7359 24.1082 61.4851 22.8573C60.1773 21.6064 59.5234 19.9575 59.5234 17.9106V14.158C59.5803 12.0542 60.2342 10.4053 61.4851 9.21128C62.7359 7.96039 64.4133 7.33496 66.517 7.33496C68.5071 7.33496 70.1275 7.93195 71.3784 9.12598C72.6293 10.2632 73.2548 11.8268 73.2548 13.8168C73.2548 13.8737 73.2263 13.9021 73.1695 13.9021L68.6492 13.8168C68.5355 12.8502 68.3365 12.2248 68.0522 11.9405C67.6542 11.5425 67.1425 11.3435 66.517 11.3435C65.8347 11.3435 65.2946 11.5709 64.8966 12.0258C64.4986 12.4807 64.2996 13.0776 64.2996 13.8168V18.2518C64.2996 18.9909 64.4986 19.588 64.8966 20.0428C65.2946 20.4977 65.8063 20.7251 66.4318 20.7251C67.1141 20.7251 67.6542 20.5261 68.0522 20.1281C68.1091 20.0144 68.1944 19.8723 68.3081 19.7017C68.6492 18.5929 69.758 17.9106 70.8667 17.9106Z" fill="#4A4D4D"/>
</g>
<mask id="mask14_2057_14126" style="mask-type:luminance" maskUnits="userSpaceOnUse" x="74" y="0" width="17" height="25">
<path d="M74.8234 0.28125L77.2455 0.289787C78.7978 0.289787 80.043 1.55205 80.0345 3.09576L80.0089 13.2706L84.3415 7.38574L89.9705 7.40278L85.0067 13.8676L90.5675 24.793L86.5846 24.7844C85.5099 24.7844 84.5291 24.1703 84.0686 23.1981L81.4929 17.8335L79.9918 19.8889L79.9833 24.7674L77.5526 24.7588C76.0089 24.7588 74.7637 23.5051 74.7637 21.9614L74.8234 0.28125Z" fill="white"/>
</mask>
<g mask="url(#mask14_2057_14126)">
<mask id="mask15_2057_14126" style="mask-type:luminance" maskUnits="userSpaceOnUse" x="-103" y="-86" width="335" height="204">
<path d="M-102.08 116.707L231.216 117.603L231.762 -84.4268L-101.534 -85.3223L-102.08 116.707Z" fill="white"/>
</mask>
<g mask="url(#mask15_2057_14126)">
<path d="M74.4486 -0.0859375H90.9944V25.1592H74.3633L74.4486 -0.0859375Z" fill="#4A4D4D"/>
</g>
<path d="M74.7891 0.255859H77.2624C78.7976 0.255859 80.0769 1.53519 80.0769 3.07037L79.9916 13.3049L84.3413 7.42003H89.9703L85.0236 13.9019L90.5673 24.8188H86.5588C85.5353 24.8188 84.5119 24.1364 84.0854 23.1983L81.5268 17.8251L79.9916 19.872V24.7335H77.5183C75.9831 24.7335 74.7891 23.5394 74.7891 21.9189V0.255859Z" fill="#4A4D4D"/>
</g>
<mask id="mask16_2057_14126" style="mask-type:luminance" maskUnits="userSpaceOnUse" x="89" y="7" width="15" height="18">
<path d="M96.6568 7.41996C98.6753 7.42565 100.301 8.04825 101.535 9.28777C102.769 10.533 103.383 12.1876 103.377 14.2515L103.369 17.0831L94.4052 17.0575L94.3967 18.4903C94.3967 19.2409 94.607 19.8493 95.0278 20.3155C95.4485 20.7817 96.0029 21.0148 96.6909 21.0148C97.3561 21.0205 97.8735 20.8187 98.2431 20.4093C98.3 20.3411 98.3569 20.2529 98.4137 20.1449C98.8828 19.1812 99.8636 18.5756 100.93 18.5756L103.36 18.5842V18.6865C103.36 20.5458 102.738 22.0326 101.493 23.147C100.253 24.2558 98.6269 24.8073 96.6141 24.8016C94.5274 24.7959 92.853 24.1705 91.5907 22.9253C90.3227 21.6858 89.6916 20.0312 89.6973 17.9615L89.7058 14.2174C89.7115 12.1477 90.3512 10.496 91.6248 9.26218C92.8984 8.02835 94.5758 7.41428 96.6568 7.41996ZM96.6483 11.1982C95.9603 11.1982 95.4173 11.4257 95.0193 11.8805C94.6156 12.3354 94.4137 12.9239 94.4137 13.646V13.8848L98.806 13.9018V13.663C98.8117 12.9352 98.6184 12.3439 98.2261 11.8891C97.8394 11.4342 97.3135 11.2039 96.6483 11.1982Z" fill="white"/>
</mask>
<g mask="url(#mask16_2057_14126)">
<mask id="mask17_2057_14126" style="mask-type:luminance" maskUnits="userSpaceOnUse" x="-103" y="-86" width="335" height="204">
<path d="M-102.08 116.707L231.216 117.603L231.762 -84.4268L-101.534 -85.3223L-102.08 116.707Z" fill="white"/>
</mask>
<g mask="url(#mask17_2057_14126)">
<path d="M89.3744 6.99316L103.788 7.07846L103.703 25.2448L89.2891 25.1595L89.3744 6.99316Z" fill="#4A4D4D"/>
</g>
</g>
<mask id="mask18_2057_14126" style="mask-type:luminance" maskUnits="userSpaceOnUse" x="103" y="0" width="12" height="25">
<path d="M103.889 9.26269V7.39489L106.686 7.40343L106.703 0.367188L109.134 0.375725C110.678 0.375725 111.923 1.63796 111.923 3.18167L111.906 7.42048L114.78 7.42901L114.771 9.29682C114.771 10.8405 113.518 12.0857 111.974 12.0857H111.897L111.863 24.8533L109.441 24.8448C107.889 24.8448 106.644 23.5911 106.652 22.0473L106.678 12.0687C105.134 12.0687 103.88 10.8064 103.889 9.26269Z" fill="white"/>
</mask>
<g mask="url(#mask18_2057_14126)">
<mask id="mask19_2057_14126" style="mask-type:luminance" maskUnits="userSpaceOnUse" x="-103" y="-86" width="335" height="204">
<path d="M-102.082 116.708L231.214 117.604L231.76 -84.4258L-101.536 -85.3213L-102.082 116.708Z" fill="white"/>
</mask>
<g mask="url(#mask19_2057_14126)">
<path d="M103.529 0.000976562H115.213L115.128 25.2462H103.443L103.529 0.000976562Z" fill="#4A4D4D"/>
</g>
<path d="M103.871 9.29701V7.42067H106.686V0.341797H109.159C110.694 0.341797 111.888 1.6211 111.888 3.15628V7.42067H114.788V9.29701C114.788 10.8322 113.509 12.1115 111.973 12.1115H111.888V24.8194H109.415C107.88 24.8194 106.686 23.6254 106.686 22.0049V12.1115C105.15 12.0262 103.871 10.8322 103.871 9.29701Z" fill="#4A4D4D"/>
</g>
<mask id="mask20_2057_14126" style="mask-type:luminance" maskUnits="userSpaceOnUse" x="115" y="7" width="15" height="18">
<path d="M118.73 19.0528L120.094 19.0784L120.077 19.7266C120.06 20.7671 120.811 21.3016 122.329 21.33C123.853 21.3641 124.626 20.895 124.649 19.9227C124.654 19.5816 124.538 19.2945 124.299 19.0614C124.066 18.8339 123.648 18.6349 123.045 18.4643L120.052 17.5177C117.214 16.625 115.821 14.9448 115.872 12.4771C115.901 11.0727 116.523 9.8787 117.74 8.89504C118.957 7.91708 120.543 7.44515 122.499 7.47926C124.631 7.52475 126.309 8.01374 127.531 8.94621C128.529 9.69675 128.725 11.1211 127.975 12.1275C127.531 12.7074 126.84 13.04 126.115 13.023L124.606 12.9888L124.614 12.5198C124.637 11.5248 123.935 11.013 122.508 10.9846C121.928 10.9675 121.459 11.0699 121.101 11.2916C120.748 11.5134 120.566 11.8147 120.555 12.1957C120.543 12.8097 121.055 13.2618 122.09 13.5517L124.435 14.2767C126.022 14.7884 127.253 15.4309 128.128 16.2042C129.01 16.9832 129.436 18.1061 129.408 19.5731C129.374 21.2049 128.725 22.5041 127.463 23.4707C126.195 24.443 124.487 24.9093 122.337 24.8695C120.233 24.824 118.539 24.3179 117.254 23.3513C116.197 22.5582 115.983 21.0656 116.777 20.008C117.237 19.394 117.962 19.0358 118.73 19.0528Z" fill="white"/>
</mask>
<g mask="url(#mask20_2057_14126)">
<mask id="mask21_2057_14126" style="mask-type:luminance" maskUnits="userSpaceOnUse" x="-103" y="-86" width="335" height="204">
<path d="M-102.08 116.707L231.216 117.603L231.762 -84.4268L-101.534 -85.3223L-102.08 116.707Z" fill="white"/>
</mask>
<g mask="url(#mask21_2057_14126)">
<path d="M115.558 6.99316L130.057 7.24904L129.716 25.4153L115.217 25.0742L115.558 6.99316Z" fill="#4A4D4D"/>
</g>
<path d="M118.713 19.0186L120.077 19.1039V19.7009C120.077 20.7812 120.816 21.3214 122.295 21.3214C123.83 21.3782 124.626 20.9234 124.683 19.9568C124.683 19.6156 124.569 19.3313 124.342 19.1039C124.057 18.8196 123.631 18.5922 123.062 18.4216L120.077 17.4834C117.234 16.6305 115.841 14.9532 115.898 12.4514C115.898 11.0868 116.524 9.8928 117.774 8.86935C118.969 7.90275 120.532 7.44788 122.465 7.50474C124.626 7.50474 126.303 7.98805 127.497 8.95464C128.521 9.72223 128.691 11.0868 128.009 12.1103C127.497 12.7073 126.815 13.0484 126.133 13.0484L124.597 12.9632V12.5367C124.654 11.5133 123.944 11.0015 122.465 11.0015C121.897 11.0015 121.442 11.0868 121.101 11.2574C120.76 11.4848 120.589 11.7976 120.589 12.1956C120.532 12.821 121.044 13.2759 122.124 13.5602L124.427 14.2425C126.019 14.7542 127.241 15.4081 128.094 16.2041C129.004 17.0001 129.43 18.1373 129.374 19.6156C129.374 21.2076 128.748 22.487 127.497 23.4536C126.19 24.4202 124.455 24.9034 122.295 24.9034C120.191 24.8466 118.514 24.3349 117.263 23.3683C116.154 22.6007 115.983 21.0655 116.751 20.042C117.263 19.3597 117.945 19.0186 118.713 19.0186Z" fill="#4A4D4D"/>
</g>
<path d="M129.459 5.03197V0H130.824V4.00851H133.041V5.03197H129.459ZM133.894 5.03197V0H135.259V1.79105L137.135 0H138.585L136.197 2.38805L138.841 5.03197H137.22L135.259 3.07036V5.03197H133.894Z" fill="#4A4D4D"/>
</svg>
