<svg width="400" height="400" viewBox="0 0 400 400" fill="none" xmlns="http://www.w3.org/2000/svg">
<path d="M400 305.92H0V306.12H400V305.92Z" fill="#EBEBEB"/>
<path d="M359.919 318.792H297.863V318.992H359.919V318.792Z" fill="#EBEBEB"/>
<path d="M266.664 315.992H222.4V316.192H266.664V315.992Z" fill="#EBEBEB"/>
<path d="M332.624 311.368H285.408V311.568H332.624V311.368Z" fill="#EBEBEB"/>
<path d="M52.1208 312.712H41.9688V312.912H52.1208V312.712Z" fill="#EBEBEB"/>
<path d="M116.536 312.712H59.248V312.912H116.536V312.712Z" fill="#EBEBEB"/>
<path d="M175.999 316.088H138.527V316.288H175.999V316.088Z" fill="#EBEBEB"/>
<path d="M189.6 270.24H35.1284C33.9182 270.238 32.7584 269.756 31.9035 268.899C31.0485 268.043 30.5684 266.882 30.5684 265.672V48.528C30.5789 47.3248 31.0637 46.1744 31.9175 45.3266C32.7713 44.4788 33.9251 44.0021 35.1284 44H189.6C190.812 44 191.974 44.4813 192.83 45.3379C193.687 46.1946 194.168 47.3565 194.168 48.568V265.672C194.168 266.884 193.687 268.045 192.83 268.902C191.974 269.759 190.812 270.24 189.6 270.24ZM35.1284 44.16C33.9713 44.1621 32.8623 44.6233 32.0449 45.4422C31.2275 46.2611 30.7684 47.3709 30.7684 48.528V265.672C30.7684 266.829 31.2275 267.939 32.0449 268.758C32.8623 269.577 33.9713 270.038 35.1284 270.04H189.6C190.758 270.038 191.868 269.577 192.687 268.758C193.505 267.94 193.966 266.83 193.968 265.672V48.528C193.966 47.3702 193.505 46.2604 192.687 45.4417C191.868 44.623 190.758 44.1621 189.6 44.16H35.1284Z" fill="#EBEBEB"/>
<path d="M362.648 270.24H208.168C206.957 270.238 205.796 269.756 204.94 268.9C204.084 268.044 203.602 266.883 203.6 265.672V48.528C203.612 47.3241 204.099 46.1737 204.954 45.3261C205.809 44.4785 206.964 44.002 208.168 44H362.648C363.849 44.0042 365.001 44.4818 365.853 45.3294C366.705 46.177 367.189 47.3262 367.2 48.528V265.672C367.2 266.881 366.721 268.04 365.867 268.896C365.014 269.753 363.856 270.236 362.648 270.24ZM208.168 44.16C207.01 44.1621 205.9 44.623 205.081 45.4417C204.263 46.2604 203.802 47.3702 203.8 48.528V265.672C203.802 266.83 204.263 267.94 205.081 268.758C205.9 269.577 207.01 270.038 208.168 270.04H362.648C363.805 270.038 364.915 269.577 365.734 268.758C366.553 267.94 367.013 266.83 367.016 265.672V48.528C367.013 47.3702 366.553 46.2604 365.734 45.4417C364.915 44.623 363.805 44.1621 362.648 44.16H208.168Z" fill="#EBEBEB"/>
<path d="M204.361 190.312H194.297V298.609H204.361V190.312Z" fill="#F0F0F0"/>
<path d="M352.248 298.6H198.16V305.816H352.248V298.6Z" fill="#F0F0F0"/>
<path d="M204.351 298.6H356.111V190.304H204.351V298.6Z" fill="#F5F5F5"/>
<path d="M201.992 183.48H191.592V190.304H201.992V183.48Z" fill="#E0E0E0"/>
<path d="M201.984 190.313L358.816 190.312V183.489L201.984 183.489V190.313Z" fill="#EBEBEB"/>
<path d="M341.121 236.872H219.353C217.262 236.87 215.258 236.038 213.78 234.559C212.303 233.08 211.473 231.075 211.473 228.984V205.784C211.473 203.694 212.303 201.689 213.78 200.21C215.258 198.731 217.262 197.899 219.353 197.896H341.121C343.211 197.899 345.216 198.731 346.693 200.21C348.171 201.689 349.001 203.694 349.001 205.784V228.984C349.001 231.075 348.171 233.08 346.693 234.559C345.216 236.038 343.211 236.87 341.121 236.872ZM219.353 199.512C217.686 199.515 216.089 200.178 214.912 201.357C213.734 202.536 213.073 204.134 213.073 205.8V229C213.075 230.666 213.737 232.263 214.914 233.442C216.091 234.62 217.687 235.284 219.353 235.288H341.121C342.786 235.284 344.382 234.62 345.559 233.442C346.736 232.263 347.399 230.666 347.401 229V205.8C347.401 204.134 346.739 202.536 345.562 201.357C344.384 200.178 342.787 199.515 341.121 199.512H219.353Z" fill="white"/>
<path d="M341.121 285.376H219.353C217.263 285.374 215.26 284.543 213.783 283.066C212.306 281.588 211.475 279.585 211.473 277.496V254.296C211.475 252.207 212.306 250.204 213.783 248.726C215.26 247.249 217.263 246.418 219.353 246.416H341.121C343.21 246.418 345.213 247.249 346.69 248.726C348.168 250.204 348.999 252.207 349.001 254.296V277.496C348.999 279.585 348.168 281.588 346.69 283.066C345.213 284.543 343.21 285.374 341.121 285.376ZM219.353 248C217.688 248.002 216.092 248.664 214.914 249.842C213.737 251.019 213.075 252.615 213.073 254.28V277.48C213.075 279.145 213.737 280.741 214.914 281.918C216.092 283.096 217.688 283.758 219.353 283.76H341.121C342.786 283.758 344.382 283.096 345.559 281.918C346.736 280.741 347.399 279.145 347.401 277.48V254.28C347.399 252.615 346.736 251.019 345.559 249.842C344.382 248.664 342.786 248.002 341.121 248H219.353Z" fill="white"/>
<path d="M300.448 220.752H260C259.363 220.752 258.753 220.499 258.303 220.049C257.852 219.599 257.6 218.988 257.6 218.352V216.448C257.6 215.811 257.852 215.201 258.303 214.751C258.753 214.301 259.363 214.048 260 214.048H300.424C301.06 214.048 301.671 214.301 302.121 214.751C302.571 215.201 302.824 215.811 302.824 216.448V218.352C302.824 218.984 302.574 219.591 302.129 220.04C301.684 220.49 301.08 220.746 300.448 220.752ZM260 215.632C259.787 215.632 259.584 215.716 259.434 215.866C259.284 216.016 259.2 216.22 259.2 216.432V218.336C259.2 218.548 259.284 218.752 259.434 218.902C259.584 219.052 259.787 219.136 260 219.136H300.424C300.636 219.136 300.839 219.052 300.989 218.902C301.139 218.752 301.224 218.548 301.224 218.336V216.432C301.224 216.22 301.139 216.016 300.989 215.866C300.839 215.716 300.636 215.632 300.424 215.632H260Z" fill="white"/>
<path d="M300.448 269.264H260C259.363 269.264 258.753 269.011 258.303 268.561C257.852 268.111 257.6 267.5 257.6 266.864V264.952C257.6 264.315 257.852 263.705 258.303 263.255C258.753 262.805 259.363 262.552 260 262.552H300.424C301.06 262.552 301.671 262.805 302.121 263.255C302.571 263.705 302.824 264.315 302.824 264.952V266.864C302.824 267.496 302.574 268.103 302.129 268.552C301.684 269.002 301.08 269.257 300.448 269.264ZM260 264.136C259.787 264.136 259.584 264.22 259.434 264.37C259.284 264.52 259.2 264.724 259.2 264.936V266.848C259.2 267.06 259.284 267.263 259.434 267.413C259.584 267.563 259.787 267.648 260 267.648H300.424C300.636 267.648 300.839 267.563 300.989 267.413C301.139 267.263 301.224 267.06 301.224 266.848V264.936C301.224 264.724 301.139 264.52 300.989 264.37C300.839 264.22 300.636 264.136 300.424 264.136H260Z" fill="white"/>
<path d="M45.3765 226.952H73.4805V221.408H45.3765V226.952Z" fill="#E6E6E6"/>
<path d="M126.481 116.392H121.297V305.92H126.481V116.392Z" fill="#E6E6E6"/>
<path d="M144.456 221.408H73.4805V226.952H144.456V221.408Z" fill="#F5F5F5"/>
<path d="M45.3765 277.952H73.4805V272.408H45.3765V277.952Z" fill="#E6E6E6"/>
<path d="M144.456 272.408H73.4805V277.952H144.456V272.408Z" fill="#F5F5F5"/>
<path d="M45.3765 124.96H73.4805V119.416H45.3765V124.96Z" fill="#E6E6E6"/>
<path d="M144.456 119.416H73.4805V124.96H144.456V119.416Z" fill="#F5F5F5"/>
<path d="M45.3765 175.952H73.4805V170.408H45.3765V175.952Z" fill="#E6E6E6"/>
<path d="M144.456 170.416H73.4805V175.96H144.456V170.416Z" fill="#F5F5F5"/>
<path d="M55.5121 116.392H50.3281V305.92H55.5121V116.392Z" fill="#E6E6E6"/>
<path d="M78.6645 116.392H73.4805V305.92H78.6645V116.392Z" fill="#F5F5F5"/>
<path d="M144.455 116.392H139.271V305.92H144.455V116.392Z" fill="#F5F5F5"/>
<path d="M272.167 66.6963H165.855V157.568H272.167V66.6963Z" fill="#E0E0E0"/>
<path d="M276.712 66.6963H168.424V157.568H276.712V66.6963Z" fill="#F5F5F5"/>
<path d="M270.184 150.408V73.8564H174.944V150.408H270.184Z" fill="white"/>
<path d="M322.241 81.7676H317.881V180.688H322.241V81.7676Z" fill="#F5F5F5"/>
<path d="M335.321 183.48H304.801C304.801 182.975 304.9 182.475 305.094 182.008C305.287 181.542 305.571 181.118 305.928 180.762C306.286 180.405 306.71 180.122 307.177 179.93C307.644 179.737 308.144 179.639 308.649 179.64H331.481C332.499 179.64 333.476 180.044 334.196 180.764C334.916 181.485 335.321 182.461 335.321 183.48Z" fill="#F0F0F0"/>
<path d="M342.136 110.072H297.992L303.064 64.3682H337.056L342.136 110.072Z" fill="#E0E0E0"/>
<path d="M196.001 342.048C281.667 342.048 351.113 337.993 351.113 332.992C351.113 327.99 281.667 323.936 196.001 323.936C110.335 323.936 40.8887 327.99 40.8887 332.992C40.8887 337.993 110.335 342.048 196.001 342.048Z" fill="#F5F5F5"/>
<path d="M165.392 109.976C165.392 109.976 167.256 103.352 177.992 105.8C188.728 108.248 180.184 116.44 180.184 116.44C180.184 116.44 187.536 121.304 185.264 131.136C182.64 142.504 189.32 144.888 186.064 150.048C182.808 155.208 160.664 159.2 146.4 151.2C137.816 146.4 149.784 132.408 148.048 125.968C145.472 116.368 152.624 106.904 165.392 109.976Z" fill="#263238"/>
<path d="M163.672 269.728L172.184 227.472C172.689 225.24 173.916 223.238 175.675 221.774C177.434 220.31 179.626 219.467 181.912 219.376H263.744C268.216 219.376 271.112 223 270.208 227.472L261.696 269.728C261.193 271.955 259.971 273.954 258.218 275.417C256.466 276.88 254.281 277.726 252 277.824H170.136C165.672 277.824 162.776 274.2 163.672 269.728Z" fill="#135BF2"/>
<path d="M94.0308 207.335C93.7759 205.478 93.6157 203.609 93.5508 201.735H94.3508C94.4148 203.543 94.5748 205.391 94.8228 207.231L94.0308 207.335Z" fill="#135BF2"/>
<path d="M95.0402 191.064L94.2402 190.928C95.5252 183.11 98.835 175.765 103.84 169.624L104.456 170.128C99.5484 176.168 96.3027 183.385 95.0402 191.064Z" fill="#135BF2"/>
<path d="M141.535 156H155.935L178.287 265.6H163.887C133.615 265.6 104.071 241.056 97.9033 210.792C91.7353 180.528 111.263 156 141.535 156Z" fill="#135BF2"/>
<path d="M212.114 251.495C230.44 231.206 225.136 196.549 200.266 174.085C175.397 151.622 140.38 149.859 122.053 170.148C103.727 190.437 109.032 225.095 133.901 247.558C158.771 270.022 193.788 271.785 212.114 251.495Z" fill="#135BF2"/>
<path opacity="0.2" d="M212.114 251.495C230.44 231.206 225.136 196.549 200.266 174.085C175.397 151.622 140.38 149.859 122.053 170.148C103.727 190.437 109.032 225.095 133.901 247.558C158.771 270.022 193.788 271.785 212.114 251.495Z" fill="white"/>
<path d="M241.984 253.432L247.2 227.472C247.705 225.242 248.931 223.24 250.688 221.776C252.445 220.313 254.636 219.469 256.92 219.376H265.12C269.592 219.376 272.488 223 271.592 227.472L263.08 269.728C262.575 271.96 261.348 273.962 259.59 275.426C257.831 276.89 255.639 277.733 253.352 277.824H150.4V253.432H241.984Z" fill="#135BF2"/>
<path opacity="0.3" d="M241.984 253.432L247.2 227.472C247.705 225.242 248.931 223.24 250.688 221.776C252.445 220.313 254.636 219.469 256.92 219.376H265.12C269.592 219.376 272.488 223 271.592 227.472L263.08 269.728C262.575 271.96 261.348 273.962 259.59 275.426C257.831 276.89 255.639 277.733 253.352 277.824H150.4V253.432H241.984Z" fill="white"/>
<path d="M141.799 332.696H146.991L159.607 277.824H150.207L141.799 332.696Z" fill="#263238"/>
<path opacity="0.6" d="M141.799 332.696H146.991L159.607 277.824H150.207L141.799 332.696Z" fill="white"/>
<path d="M116.008 332.696H121.2L133.816 277.824H124.416L116.008 332.696Z" fill="#263238"/>
<path opacity="0.6" d="M116.008 332.696H121.2L133.816 277.824H124.416L116.008 332.696Z" fill="white"/>
<path d="M223.367 332.696H218.175L205.559 277.824H214.959L223.367 332.696Z" fill="#263238"/>
<path opacity="0.6" d="M223.367 332.696H218.175L205.559 277.824H214.959L223.367 332.696Z" fill="white"/>
<path d="M249.16 332.696H243.96L231.352 277.824H240.752L249.16 332.696Z" fill="#263238"/>
<path opacity="0.6" d="M249.16 332.696H243.96L231.352 277.824H240.752L249.16 332.696Z" fill="white"/>
<path d="M188.912 169.768C191.632 174.472 194.512 179.272 197.528 183.84C199.032 186.136 200.568 188.384 202.168 190.528C203.681 192.611 205.347 194.579 207.152 196.416C207.216 196.48 207.152 196.416 207.056 196.344C206.96 196.272 206.864 196.2 206.768 196.144C206.313 195.863 205.803 195.683 205.272 195.616C205.056 195.6 204.84 195.6 204.624 195.616C204.139 195.628 203.661 195.734 203.216 195.928C203.022 196.012 202.835 196.111 202.656 196.224C202.214 196.496 201.837 196.862 201.552 197.296C201.41 197.5 201.305 197.728 201.24 197.968C201.24 198.016 201.24 197.968 201.24 197.928C201.336 197.442 201.4 196.95 201.432 196.456C201.52 195.248 201.528 193.904 201.512 192.552C201.512 189.84 201.368 187.056 201.224 184.272L200.296 167.472L205 166.76C206.352 172.36 207.496 177.888 208.408 183.56C208.848 186.392 209.272 189.232 209.544 192.168C209.68 193.64 209.792 195.112 209.808 196.728C209.831 197.648 209.775 198.569 209.64 199.48C209.588 199.814 209.516 200.146 209.424 200.472C209.271 201.054 209.025 201.608 208.696 202.112C208.175 202.912 207.429 203.541 206.552 203.92C206.294 204.031 206.026 204.117 205.752 204.176C205.471 204.241 205.184 204.279 204.896 204.288C204.63 204.308 204.362 204.308 204.096 204.288C203.391 204.19 202.715 203.944 202.112 203.568C201.944 203.456 201.728 203.304 201.608 203.208L201.32 202.968C199 200.933 196.859 198.704 194.92 196.304C193.024 194.016 191.272 191.672 189.608 189.28C186.3 184.492 183.26 179.525 180.504 174.4L188.912 169.768Z" fill="#FFC3BD"/>
<path d="M184.511 160.8C190.911 161.88 196.111 181.056 195.959 180.648L183.663 192.104C183.663 192.104 176.079 180.68 177.151 174.96C178.271 169.032 179.471 160 184.511 160.8Z" fill="#135BF2"/>
<path opacity="0.4" d="M184.511 160.8C190.911 161.88 196.111 181.056 195.959 180.648L183.663 192.104C183.663 192.104 176.079 180.68 177.151 174.96C178.271 169.032 179.471 160 184.511 160.8Z" fill="black"/>
<path d="M191.551 173.24C190.951 181.448 189.151 195.28 184.623 218.56L145.975 217.416C146.991 203.144 145.455 192.512 141.975 167.544C141.824 166.465 141.892 165.366 142.175 164.314C142.458 163.261 142.95 162.277 143.622 161.419C144.294 160.561 145.132 159.847 146.086 159.32C147.04 158.793 148.091 158.464 149.175 158.352C151.655 158.096 154.479 157.88 157.311 157.832C163.831 157.712 169.159 157.656 174.863 158.352C176.743 158.584 178.695 158.88 180.551 159.192C183.803 159.746 186.732 161.493 188.766 164.09C190.8 166.688 191.792 169.95 191.551 173.24Z" fill="#135BF2"/>
<path opacity="0.3" d="M191.551 173.24C190.951 181.448 189.151 195.28 184.623 218.56L145.975 217.416C146.991 203.144 145.455 192.512 141.975 167.544C141.824 166.465 141.892 165.366 142.175 164.314C142.458 163.261 142.95 162.277 143.622 161.419C144.294 160.561 145.132 159.847 146.086 159.32C147.04 158.793 148.091 158.464 149.175 158.352C151.655 158.096 154.479 157.88 157.311 157.832C163.831 157.712 169.159 157.656 174.863 158.352C176.743 158.584 178.695 158.88 180.551 159.192C183.803 159.746 186.732 161.493 188.766 164.09C190.8 166.688 191.792 169.95 191.551 173.24Z" fill="black"/>
<path d="M159.639 138.12C160.583 143.8 161.375 154.176 157.311 157.832C157.311 157.832 167.231 163.024 173.735 172.08C180.687 166.576 174.863 158.352 174.863 158.352C168.615 156.664 168.911 151.992 170.143 147.64L159.639 138.12Z" fill="#FFC3BD"/>
<path opacity="0.2" d="M163.92 142.008L170.136 147.608C169.834 148.622 169.623 149.661 169.504 150.712C167.104 150.288 163.904 147.552 163.704 145.024C163.594 144.014 163.667 142.992 163.92 142.008Z" fill="black"/>
<path d="M153.336 127.495C155.032 136.791 155.552 140.759 160.864 144.999C168.864 151.399 179.888 147.255 181 137.639C182 128.991 179.056 115.239 169.448 112.615C167.331 112.025 165.098 111.986 162.962 112.501C160.825 113.017 158.856 114.071 157.242 115.562C155.627 117.053 154.421 118.932 153.737 121.021C153.053 123.109 152.915 125.338 153.336 127.495Z" fill="#FFC3BD"/>
<path d="M166.047 111.504C178.799 116.672 165.967 121.048 161.327 125.984C157.215 130.368 161.063 137.336 154.167 132.424C150.879 130.08 151.015 117.704 152.855 115.392C154.695 113.08 162.247 109.96 166.047 111.504Z" fill="#263238"/>
<path d="M169.311 128.912C169.407 129.712 169.879 130.248 170.383 130.184C170.887 130.12 171.183 129.464 171.119 128.696C171.055 127.928 170.551 127.368 170.047 127.424C169.543 127.48 169.223 128.152 169.311 128.912Z" fill="#263238"/>
<path d="M177.895 127.664C177.983 128.464 178.463 129 178.959 128.936C179.455 128.872 179.759 128.216 179.695 127.448C179.631 126.68 179.127 126.12 178.631 126.176C178.135 126.232 177.799 126.904 177.895 127.664Z" fill="#263238"/>
<path d="M178.4 126.248L180.168 125.496C180.168 125.496 179.416 127.04 178.4 126.248Z" fill="#263238"/>
<path d="M174.695 128.848C175.583 130.505 176.691 132.034 177.991 133.392C177.103 134.448 175.335 134.192 175.335 134.192L174.695 128.848Z" fill="#ED847E"/>
<path d="M171.536 137.712C171.916 137.72 172.295 137.701 172.672 137.656C172.702 137.653 172.73 137.644 172.756 137.63C172.782 137.616 172.805 137.597 172.824 137.573C172.842 137.55 172.856 137.524 172.865 137.495C172.873 137.467 172.875 137.437 172.872 137.408C172.861 137.349 172.828 137.297 172.781 137.26C172.734 137.223 172.676 137.205 172.616 137.208C171.67 137.346 170.705 137.257 169.799 136.95C168.894 136.643 168.075 136.125 167.408 135.44C167.37 135.394 167.315 135.366 167.256 135.36C167.197 135.355 167.138 135.374 167.092 135.412C167.046 135.45 167.018 135.505 167.013 135.564C167.007 135.623 167.026 135.682 167.064 135.728C167.64 136.339 168.332 136.83 169.1 137.171C169.868 137.511 170.696 137.695 171.536 137.712Z" fill="#263238"/>
<path d="M151.319 136C152.245 137.727 153.819 139.016 155.695 139.584C158.191 140.312 159.471 138.088 158.807 135.72C158.207 133.584 156.183 130.64 153.671 130.92C151.159 131.2 150.199 133.856 151.319 136Z" fill="#FFC3BD"/>
<path d="M165.512 126.879C165.606 126.881 165.698 126.854 165.775 126.801C165.853 126.748 165.912 126.672 165.944 126.583C166.664 124.623 169.248 123.895 169.272 123.887C169.387 123.855 169.484 123.78 169.544 123.677C169.604 123.573 169.621 123.451 169.592 123.335C169.577 123.278 169.551 123.224 169.515 123.177C169.479 123.13 169.434 123.091 169.382 123.062C169.33 123.033 169.274 123.014 169.215 123.008C169.156 123.001 169.096 123.006 169.04 123.023C168.912 123.023 165.968 123.879 165.104 126.271C165.076 126.338 165.065 126.411 165.072 126.483C165.08 126.555 165.105 126.624 165.145 126.684C165.185 126.745 165.24 126.794 165.304 126.828C165.368 126.862 165.439 126.879 165.512 126.879Z" fill="#263238"/>
<path d="M179.903 122.895C179.982 122.901 180.061 122.884 180.132 122.848C180.202 122.811 180.262 122.756 180.303 122.687C180.366 122.586 180.388 122.464 180.362 122.348C180.337 122.231 180.266 122.129 180.167 122.063C179.573 121.662 178.892 121.409 178.18 121.327C177.469 121.245 176.748 121.336 176.079 121.591C176.024 121.615 175.975 121.649 175.935 121.691C175.894 121.734 175.862 121.785 175.841 121.84C175.82 121.895 175.811 121.954 175.813 122.013C175.815 122.072 175.829 122.13 175.855 122.183C175.904 122.292 175.993 122.376 176.103 122.42C176.214 122.463 176.337 122.461 176.447 122.415C176.974 122.226 177.539 122.164 178.096 122.235C178.652 122.306 179.183 122.508 179.647 122.823C179.721 122.875 179.812 122.901 179.903 122.895Z" fill="#263238"/>
<path d="M188.951 322.936L197.679 326.224L207.607 305.912L198.887 302.624L188.951 322.936Z" fill="#FFC3BD"/>
<path d="M200.143 320.632L190.543 315.912C190.381 315.824 190.192 315.801 190.014 315.847C189.836 315.893 189.682 316.005 189.583 316.16L185.279 322.56C185.157 322.737 185.072 322.937 185.029 323.147C184.986 323.357 184.985 323.574 185.028 323.785C185.07 323.995 185.155 324.195 185.276 324.372C185.398 324.549 185.554 324.7 185.735 324.816C188.279 326.712 190.311 326.848 194.535 328.92C197.135 330.2 202.407 333.592 206.303 334.48C210.199 335.368 211.223 331.552 209.679 330.832C202.735 327.632 202.679 324.904 201.319 321.888C201.088 321.343 200.671 320.898 200.143 320.632Z" fill="#263238"/>
<g opacity="0.2">
<path d="M207.608 305.92L202.488 316.392L193.76 313.096L198.88 302.624L207.608 305.92Z" fill="black"/>
</g>
<path d="M252.72 306.616L260.952 302.232L252.24 281.368L245.416 292.96L252.72 306.616Z" fill="#FFC3BD"/>
<path d="M260.391 298.495L249.783 299.823C249.6 299.84 249.43 299.924 249.307 300.061C249.183 300.197 249.116 300.376 249.119 300.559V309.087C249.133 309.301 249.19 309.51 249.286 309.702C249.383 309.893 249.517 310.064 249.68 310.202C249.843 310.341 250.033 310.446 250.238 310.51C250.442 310.574 250.658 310.596 250.871 310.575C254.567 310.047 256.319 309.607 260.983 309.023C263.855 308.663 271.207 307.991 275.167 307.495C279.127 306.999 278.791 303.063 277.087 302.911C269.455 302.255 264.863 300.647 262.071 298.871C261.573 298.553 260.978 298.42 260.391 298.495Z" fill="#263238"/>
<g opacity="0.2">
<path d="M252.24 281.376L256.728 292.128L248.504 296.512L245.416 292.968L252.24 281.376Z" fill="black"/>
</g>
<path d="M169.832 127.496L171.6 126.752C171.6 126.752 170.832 128.288 169.832 127.496Z" fill="#263238"/>
<path d="M177.143 226.032C177.143 226.032 231.239 225.736 229.551 243.856C226.759 273.816 205.551 315.056 205.551 315.056L193.223 310.792C193.223 310.792 206.295 283.072 205.695 253.408H166.015C150.879 253.408 144.335 236.784 159.071 217.408C168.079 217.416 177.143 226.032 177.143 226.032Z" fill="black"/>
<path d="M145.464 215.128L144.376 218.56C144.232 218.824 144.536 219.104 144.984 219.12L184.8 220.304C185.152 220.304 185.44 220.152 185.472 219.928L185.92 216.48C185.92 216.24 185.656 216.032 185.28 216.016L146.144 214.856C146.017 214.836 145.886 214.851 145.767 214.899C145.647 214.947 145.543 215.026 145.464 215.128Z" fill="white"/>
<path d="M150.591 219.656H149.543C149.335 219.656 149.175 219.536 149.191 219.4L149.823 214.92C149.823 214.792 150.023 214.688 150.231 214.696H151.279C151.487 214.696 151.647 214.816 151.623 214.944L150.999 219.424C150.983 219.56 150.799 219.664 150.591 219.656Z" fill="#263238"/>
<path d="M181.799 220.591H180.751C180.543 220.591 180.391 220.471 180.407 220.335L181.031 215.855C181.031 215.727 181.239 215.623 181.447 215.631H182.495C182.703 215.631 182.855 215.751 182.839 215.879L182.215 220.359C182.199 220.495 182.015 220.591 181.799 220.591Z" fill="#263238"/>
<path d="M166.2 220.12H165.152C164.936 220.12 164.784 220 164.8 219.864L165.424 215.384C165.424 215.256 165.632 215.152 165.84 215.16H166.888C167.096 215.16 167.256 215.28 167.232 215.408L166.608 219.888C166.592 220 166.4 220.128 166.2 220.12Z" fill="#263238"/>
<path d="M171.144 217.888C171.144 217.888 238.176 203.616 241.08 220.664C246.136 250.328 256.864 288.304 256.864 288.304L246.088 295.64C246.088 295.64 229.288 260.312 219.616 232.28C208 236 174.232 253.432 160.728 253.432C145.584 253.432 139.848 239.896 146.472 217.632C155.48 217.6 171.144 217.888 171.144 217.888Z" fill="#263238"/>
<path d="M229.552 243.855C229.203 247.364 228.669 250.851 227.952 254.303C224.976 246.959 222.064 239.383 219.6 232.279C225.832 234.895 230.04 238.599 229.552 243.855Z" fill="black"/>
<path d="M101.992 227.472L110.504 269.728C111.009 271.96 112.236 273.962 113.995 275.426C115.754 276.89 117.946 277.733 120.232 277.824H149.472C153.936 277.824 156.832 274.2 155.936 269.728L147.424 227.472C146.919 225.24 145.692 223.238 143.934 221.774C142.175 220.31 139.983 219.467 137.696 219.376H108.456C104 219.376 101.096 223 101.992 227.472Z" fill="#135BF2"/>
<path d="M163.342 269.728L154.838 227.472C154.333 225.24 153.106 223.238 151.348 221.774C149.589 220.31 147.397 219.467 145.11 219.376H136.91C132.438 219.376 129.542 223 130.446 227.472L138.958 269.728C139.463 271.958 140.689 273.96 142.446 275.424C144.203 276.887 146.394 277.731 148.679 277.824H156.879C161.351 277.824 164.246 274.2 163.342 269.728Z" fill="#135BF2"/>
<path opacity="0.3" d="M163.342 269.728L154.838 227.472C154.333 225.24 153.106 223.238 151.348 221.774C149.589 220.31 147.397 219.467 145.11 219.376H136.91C132.438 219.376 129.542 223 130.446 227.472L138.958 269.728C139.463 271.958 140.689 273.96 142.446 275.424C144.203 276.887 146.394 277.731 148.679 277.824H156.879C161.351 277.824 164.246 274.2 163.342 269.728Z" fill="white"/>
<path d="M150.4 173.128C149.92 175.624 149.408 178.304 149.016 180.904C148.624 183.504 148.216 186.144 147.96 188.752C147.704 191.36 147.488 193.96 147.424 196.496C147.345 198.905 147.498 201.316 147.88 203.696L147.952 204.072C147.935 204.022 147.913 203.974 147.888 203.928C147.832 203.88 147.84 203.864 147.888 203.928C148.069 204.188 148.284 204.422 148.528 204.624C149.351 205.312 150.247 205.907 151.2 206.4C153.46 207.575 155.799 208.594 158.2 209.448C160.672 210.376 163.216 211.208 165.784 212.008C168.352 212.808 170.968 213.568 173.536 214.304L172.736 218.992C167.118 218.57 161.543 217.701 156.064 216.392C153.204 215.713 150.403 214.806 147.688 213.68C146.152 213.039 144.691 212.234 143.328 211.28C142.466 210.667 141.693 209.937 141.032 209.112C140.599 208.583 140.239 207.999 139.96 207.376C139.79 207.018 139.651 206.646 139.544 206.264L139.384 205.648C138.651 202.662 138.26 199.602 138.216 196.528C138.14 193.635 138.217 190.74 138.448 187.856C138.664 185.008 139 182.192 139.424 179.4C139.848 176.608 140.328 173.872 141.024 171.008L150.4 173.128Z" fill="#FFC3BD"/>
<path d="M145.471 160.064C141.599 161.208 136.799 174.512 136.799 174.512L151.743 185.376C151.743 185.376 157.343 174.28 155.743 169.264C154.103 164.04 149.903 158.752 145.471 160.064Z" fill="#135BF2"/>
<path opacity="0.3" d="M145.471 160.064C141.599 161.208 136.799 174.512 136.799 174.512L151.743 185.376C151.743 185.376 157.343 174.28 155.743 169.264C154.103 164.04 149.903 158.752 145.471 160.064Z" fill="black"/>
<path d="M185.208 214.287L181.448 212.575C180.512 212.144 179.458 212.04 178.456 212.279L169.6 214.399L168.416 217.383C169.688 220.879 175.616 220.415 175.616 220.415L180.336 222.015C180.713 222.144 181.12 222.158 181.505 222.054C181.89 221.95 182.235 221.733 182.496 221.431L185.928 217.431C186.135 217.195 186.283 216.912 186.36 216.607C186.437 216.302 186.44 215.983 186.37 215.676C186.3 215.369 186.158 215.083 185.956 214.842C185.754 214.601 185.498 214.411 185.208 214.287Z" fill="#FFC3BD"/>
<path d="M211.287 155.503L206.399 155.927C205.849 155.984 205.327 156.201 204.9 156.553C204.473 156.904 204.16 157.374 203.999 157.903L202.703 162.159C202.703 162.159 198.871 166.695 200.967 169.767L204.079 170.567L211.055 164.495C211.768 163.87 212.254 163.026 212.439 162.095L213.303 157.743C213.365 157.456 213.359 157.157 213.283 156.873C213.208 156.588 213.066 156.325 212.869 156.107C212.672 155.888 212.426 155.719 212.151 155.614C211.875 155.509 211.579 155.471 211.287 155.503Z" fill="#FFC3BD"/>
<path d="M212.128 152.279C212.128 155.256 210.945 158.111 208.84 160.216C206.735 162.321 203.88 163.503 200.904 163.503C197.927 163.503 195.072 162.321 192.967 160.216C190.862 158.111 189.68 155.256 189.68 152.279H212.128Z" fill="#135BF2"/>
<path d="M200.904 152.759C207.103 152.759 212.128 152.548 212.128 152.287C212.128 152.027 207.103 151.815 200.904 151.815C194.705 151.815 189.68 152.027 189.68 152.287C189.68 152.548 194.705 152.759 200.904 152.759Z" fill="#263238"/>
<path d="M210.992 161.888C210.221 161.888 209.468 161.659 208.827 161.231C208.187 160.803 207.687 160.195 207.392 159.483C207.097 158.771 207.02 157.987 207.171 157.232C207.321 156.476 207.692 155.782 208.237 155.237C208.782 154.692 209.476 154.321 210.232 154.171C210.987 154.02 211.771 154.097 212.483 154.392C213.195 154.687 213.803 155.187 214.231 155.827C214.659 156.468 214.888 157.221 214.888 157.992C214.886 159.024 214.474 160.014 213.744 160.744C213.014 161.474 212.024 161.886 210.992 161.888ZM210.992 154.896C210.379 154.896 209.781 155.077 209.272 155.417C208.763 155.758 208.366 156.241 208.131 156.807C207.897 157.373 207.836 157.995 207.955 158.596C208.075 159.196 208.37 159.748 208.803 160.181C209.236 160.614 209.787 160.909 210.388 161.028C210.988 161.148 211.611 161.086 212.176 160.852C212.742 160.618 213.226 160.221 213.566 159.712C213.906 159.203 214.088 158.604 214.088 157.992C214.086 157.171 213.759 156.385 213.179 155.805C212.598 155.225 211.812 154.898 210.992 154.896Z" fill="#135BF2"/>
<path d="M198.8 128.271C199.22 129.647 199.842 130.952 200.648 132.143C201.494 133.249 202.428 134.284 203.44 135.239C204.605 136.343 205.537 137.668 206.184 139.135C206.79 140.649 206.855 142.324 206.368 143.879C205.935 142.508 205.31 141.204 204.512 140.007C203.664 138.904 202.731 137.869 201.72 136.911C200.561 135.805 199.631 134.481 198.984 133.015C198.375 131.503 198.31 129.826 198.8 128.271Z" fill="#E0E0E0"/>
<path d="M195.44 132.96C195.865 134.335 196.49 135.64 197.296 136.832C198.142 137.94 199.075 138.978 200.088 139.936C201.251 141.036 202.182 142.358 202.824 143.824C203.436 145.338 203.504 147.017 203.016 148.576C202.584 147.204 201.959 145.9 201.16 144.704C200.322 143.599 199.399 142.561 198.4 141.6C197.24 140.494 196.311 139.17 195.664 137.704C195.043 136.196 194.964 134.52 195.44 132.96Z" fill="#E0E0E0"/>
<path d="M166.472 113.208C172.648 117.944 174.896 115.224 177.992 120.152C176.824 113.096 172.528 111.2 168.392 111.12C164.256 111.04 164.904 112 166.472 113.208Z" fill="#263238"/>
</svg>
