<svg width="400" height="400" viewBox="0 0 400 400" fill="none" xmlns="http://www.w3.org/2000/svg">
<path d="M200.001 342.048C285.667 342.048 355.113 337.993 355.113 332.992C355.113 327.99 285.667 323.936 200.001 323.936C114.335 323.936 44.8887 327.99 44.8887 332.992C44.8887 337.993 114.335 342.048 200.001 342.048Z" fill="#F5F5F5"/>
<path d="M305.6 308.464H304.848C304.848 307.336 305.784 280.904 310.376 276.464C315.112 271.872 320.664 276.4 320.72 276.464L320.24 277.048C320.032 276.872 315.144 272.904 310.904 277.048C306.504 281.216 305.6 308.192 305.6 308.464Z" fill="#135BF2"/>
<path d="M305.2 313.768L304.448 313.696C304.448 313.376 307.416 281.6 295.904 268.392L296.48 267.896C308.2 281.352 305.232 313.448 305.2 313.768Z" fill="#135BF2"/>
<path d="M305.6 310.4C305.496 308.896 303.28 273.6 312.128 265.44L312.64 266C304.056 273.896 306.328 310 306.352 310.352L305.6 310.4Z" fill="#135BF2"/>
<path d="M304.448 310.352C304.448 310.112 304.168 286.352 297.88 282.776C297.345 282.424 296.732 282.207 296.094 282.141C295.457 282.076 294.813 282.165 294.216 282.4C290.528 283.92 288.56 290.968 288.544 291.04L287.816 290.84C287.896 290.536 289.896 283.368 293.928 281.696C294.631 281.416 295.391 281.308 296.144 281.382C296.897 281.456 297.621 281.709 298.256 282.12C304.92 285.936 305.192 309.32 305.2 310.344L304.448 310.352Z" fill="#135BF2"/>
<path d="M307.032 310.4C306.992 309.64 306.016 291.648 311.12 284.984C312.472 283.224 313.976 282.376 315.616 282.496C319.232 282.752 322.016 287.664 322.168 287.872L321.512 288.24C321.512 288.192 318.776 283.44 315.56 283.248C314.2 283.16 312.912 283.896 311.72 285.448C306.784 291.888 307.776 310.176 307.792 310.36L307.032 310.4Z" fill="#135BF2"/>
<path d="M306.023 312.864L305.263 312.8C305.263 312.368 308.463 269.504 303.191 262.36L303.799 261.904C309.247 269.28 306.151 311.088 306.023 312.864Z" fill="#135BF2"/>
<path d="M292.456 285.968C292.456 285.968 295.728 287.168 294.752 290.016C293.776 292.864 283.456 297.536 283.456 297.536C283.456 297.536 279.128 293.536 283.104 287.136C287.08 280.736 292.368 283.928 292.456 285.968Z" fill="#135BF2"/>
<path opacity="0.4" d="M292.456 285.968C292.456 285.968 295.728 287.168 294.752 290.016C293.776 292.864 283.456 297.536 283.456 297.536C283.456 297.536 279.128 293.536 283.104 287.136C287.08 280.736 292.368 283.928 292.456 285.968Z" fill="white"/>
<path d="M306.656 280.552C306.656 280.552 303.184 280.408 302.984 283.408C302.784 286.408 310.52 294.696 310.52 294.696C310.52 294.696 316.04 292.704 314.848 285.224C313.656 277.744 307.52 278.712 306.656 280.552Z" fill="#135BF2"/>
<path opacity="0.4" d="M306.656 280.552C306.656 280.552 303.184 280.408 302.984 283.408C302.784 286.408 310.52 294.696 310.52 294.696C310.52 294.696 316.04 292.704 314.848 285.224C313.656 277.744 307.52 278.712 306.656 280.552Z" fill="white"/>
<path d="M309.599 266.208C309.599 266.208 307.287 265.952 307.471 264.544C307.655 263.136 316.487 259.496 321.695 265.344C321.695 265.344 318.359 271.072 313.535 271.144C308.711 271.216 309.599 266.208 309.599 266.208Z" fill="#135BF2"/>
<path opacity="0.4" d="M309.599 266.208C309.599 266.208 307.287 265.952 307.471 264.544C307.655 263.136 316.487 259.496 321.695 265.344C321.695 265.344 318.359 271.072 313.535 271.144C308.711 271.216 309.599 266.208 309.599 266.208Z" fill="white"/>
<path d="M305.281 262.776C305.281 262.776 307.385 263.792 307.969 262.488C308.553 261.184 302.993 253.44 295.465 255.672C295.465 255.672 295.265 262.296 299.313 264.912C303.361 267.528 305.281 262.776 305.281 262.776Z" fill="#135BF2"/>
<path opacity="0.4" d="M305.281 262.776C305.281 262.776 307.385 263.792 307.969 262.488C308.553 261.184 302.993 253.44 295.465 255.672C295.465 255.672 295.265 262.296 299.313 264.912C303.361 267.528 305.281 262.776 305.281 262.776Z" fill="white"/>
<path d="M316.264 284.8C316.264 284.8 314.664 283.504 316.392 282.872C318.12 282.24 326.592 282.424 326.68 290.816C326.68 290.816 316.808 292.456 315.584 289.264C314.36 286.072 316.264 284.8 316.264 284.8Z" fill="#135BF2"/>
<path opacity="0.4" d="M316.264 284.8C316.264 284.8 314.664 283.504 316.392 282.872C318.12 282.24 326.592 282.424 326.68 290.816C326.68 290.816 316.808 292.456 315.584 289.264C314.36 286.072 316.264 284.8 316.264 284.8Z" fill="white"/>
<path d="M296.137 265.992C296.137 265.992 297.737 264.704 296.009 264.072C294.281 263.44 285.809 263.616 285.721 272.016C285.721 272.016 295.585 273.656 296.809 270.456C298.033 267.256 296.137 265.992 296.137 265.992Z" fill="#135BF2"/>
<path opacity="0.4" d="M296.137 265.992C296.137 265.992 297.737 264.704 296.009 264.072C294.281 263.44 285.809 263.616 285.721 272.016C285.721 272.016 295.585 273.656 296.809 270.456C298.033 267.256 296.137 265.992 296.137 265.992Z" fill="white"/>
<path d="M301.352 272.8C301.352 272.8 301.496 271.2 300.224 271.84C298.952 272.48 294.536 277.224 299.12 281.744C299.12 281.744 305.28 277.184 304.176 274.8C303.072 272.416 301.352 272.8 301.352 272.8Z" fill="#135BF2"/>
<path opacity="0.4" d="M301.352 272.8C301.352 272.8 301.496 271.2 300.224 271.84C298.952 272.48 294.536 277.224 299.12 281.744C299.12 281.744 305.28 277.184 304.176 274.8C303.072 272.416 301.352 272.8 301.352 272.8Z" fill="white"/>
<path d="M317.697 274.992C317.697 274.992 316.737 273.744 318.137 273.584C319.537 273.424 325.817 275.104 324.353 281.376C324.353 281.376 316.705 280.8 316.353 278.176C316.001 275.552 317.697 274.992 317.697 274.992Z" fill="#135BF2"/>
<path opacity="0.4" d="M317.697 274.992C317.697 274.992 316.737 273.744 318.137 273.584C319.537 273.424 325.817 275.104 324.353 281.376C324.353 281.376 316.705 280.8 316.353 278.176C316.001 275.552 317.697 274.992 317.697 274.992Z" fill="white"/>
<path d="M293.032 333.624H317.76L321.048 309.568H289.744L293.032 333.624Z" fill="#263238"/>
<path opacity="0.2" d="M293.032 333.624H317.76L321.048 309.568H289.744L293.032 333.624Z" fill="white"/>
<path d="M324.152 307.624V309.904C324.152 310.638 323.86 311.342 323.341 311.861C322.822 312.38 322.118 312.672 321.384 312.672H289.104C288.37 312.672 287.666 312.38 287.147 311.861C286.628 311.342 286.336 310.638 286.336 309.904V307.624H324.152Z" fill="#263238"/>
<path d="M321.6 133.744H315.08C314.64 149.52 309.48 233.408 249.432 280.48C196.096 322.304 140.296 327.128 107.464 327.128C101.712 327.128 96.6717 326.984 92.4637 326.856C89.5997 326.776 87.1197 326.704 85.2637 326.704V294.704C87.6637 294.704 90.3277 294.784 93.4477 294.872C120.296 295.672 176.16 297.272 229.728 255.296C277.192 218.072 282.528 147.752 283.088 133.744H276.688L299.176 103.344L321.6 133.744Z" fill="#135BF2"/>
<path opacity="0.2" d="M321.6 133.744H315.08C314.64 149.52 309.48 233.408 249.432 280.48C196.096 322.304 140.296 327.128 107.464 327.128C101.712 327.128 96.6717 326.984 92.4637 326.856C89.5997 326.776 87.1197 326.704 85.2637 326.704V314.928C157.648 314.128 206.28 299.544 245.192 266.128C298.624 220.256 301.784 134.464 301.784 134.464L313.288 131.264L299.16 103.304L321.6 133.744Z" fill="black"/>
<path d="M315.032 135.679H283.032C282.714 135.679 282.409 135.553 282.183 135.328C281.958 135.103 281.832 134.798 281.832 134.479C281.832 134.161 281.958 133.856 282.183 133.631C282.409 133.406 282.714 133.279 283.032 133.279H315.032C315.35 133.279 315.655 133.406 315.881 133.631C316.106 133.856 316.232 134.161 316.232 134.479C316.232 134.798 316.106 135.103 315.881 135.328C315.655 135.553 315.35 135.679 315.032 135.679Z" fill="#135BF2"/>
<path opacity="0.4" d="M315.032 135.679H283.032C282.714 135.679 282.409 135.553 282.183 135.328C281.958 135.103 281.832 134.798 281.832 134.479C281.832 134.161 281.958 133.856 282.183 133.631C282.409 133.406 282.714 133.279 283.032 133.279H315.032C315.35 133.279 315.655 133.406 315.881 133.631C316.106 133.856 316.232 134.161 316.232 134.479C316.232 134.798 316.106 135.103 315.881 135.328C315.655 135.553 315.35 135.679 315.032 135.679Z" fill="white"/>
<path d="M135.312 154.048L134.656 155.416C134.656 155.416 131.456 158.256 132.776 160.128L135.384 161.472L138.856 159.56C139.121 159.414 139.35 159.211 139.527 158.967C139.704 158.722 139.825 158.441 139.88 158.144L140.344 155.616C140.436 155.111 140.335 154.59 140.061 154.155C139.787 153.721 139.36 153.406 138.864 153.272L137.672 152.96C137.214 152.84 136.728 152.883 136.298 153.082C135.867 153.28 135.519 153.622 135.312 154.048Z" fill="#E4897B"/>
<path d="M131.576 161.408L132.312 159.344L135.936 161.208L135.088 163.096L131.576 161.408Z" fill="#135BF2"/>
<path opacity="0.7" d="M131.576 161.408L132.312 159.344L135.936 161.208L135.088 163.096L131.576 161.408Z" fill="white"/>
<path d="M135.633 162.567C134.281 166.007 132.793 169.351 131.145 172.655C130.345 174.303 129.465 175.959 128.513 177.591C128.281 177.999 128.033 178.391 127.777 178.823C127.521 179.255 127.281 179.623 126.977 180.063L126.553 180.695L126.057 181.351L125.809 181.679C125.697 181.815 125.545 181.967 125.409 182.111C125.162 182.378 124.895 182.624 124.609 182.847C123.68 183.575 122.667 184.19 121.593 184.679C120.664 185.115 119.714 185.502 118.745 185.839C116.908 186.473 115.039 187.007 113.145 187.439C111.705 187.783 110.281 188.079 108.849 188.343C107.249 188.639 105.649 188.887 104.009 189.087C103.345 189.175 102.681 189.255 102.009 189.327L101.209 181.991C104.633 181.535 108.185 180.975 111.609 180.287C113.305 179.951 114.977 179.551 116.561 179.103C117.361 178.871 118.113 178.615 118.809 178.303C119.41 178.083 119.986 177.802 120.529 177.463L120.745 177.319L120.825 177.263L121.001 177.063L121.361 176.655L121.737 176.183C121.993 175.871 122.257 175.543 122.537 175.199C122.817 174.855 123.049 174.519 123.337 174.159C124.353 172.735 125.377 171.271 126.377 169.783C128.393 166.815 131.785 160.607 131.785 160.607L135.633 162.567Z" fill="#263238"/>
<path opacity="0.3" d="M108.873 188.351C107.273 188.647 105.673 188.895 104.033 189.095L102.969 184.943C105.194 185.56 107.226 186.733 108.873 188.351Z" fill="black"/>
<path d="M76.9512 195.712C79.8159 199.924 82.3514 204.35 84.5352 208.952C86.1992 212.352 87.6472 215.672 88.8952 218.712C91.8152 225.848 93.6232 231.464 94.4952 233.272L118.495 222.384C112.199 193.424 100.671 182.208 100.671 182.208C98.6007 182.719 96.5647 183.36 94.5752 184.128C94.1512 184.288 93.7752 184.464 93.3112 184.648C89.9538 186.232 86.6922 188.011 83.5432 189.976C82.9512 190.336 82.3592 190.712 81.7912 191.096C79.9475 192.373 78.3145 193.931 76.9512 195.712Z" fill="#135BF2"/>
<path opacity="0.7" d="M76.9512 195.712C79.8159 199.924 82.3514 204.35 84.5352 208.952C86.1992 212.352 87.6472 215.672 88.8952 218.712C91.8152 225.848 93.6232 231.464 94.4952 233.272L118.495 222.384C112.199 193.424 100.671 182.208 100.671 182.208C98.6007 182.719 96.5647 183.36 94.5752 184.128C94.1512 184.288 93.7752 184.464 93.3112 184.648C89.9538 186.232 86.6922 188.011 83.5432 189.976C82.9512 190.336 82.3592 190.712 81.7912 191.096C79.9475 192.373 78.3145 193.931 76.9512 195.712Z" fill="white"/>
<path d="M77.8809 329.119L82.4969 330.663L87.3769 320.407L82.7609 318.863L77.8809 329.119Z" fill="#E4897B"/>
<path d="M160.241 330.631L164.881 329.143L162.761 317.991L158.129 319.471L160.241 330.631Z" fill="#E4897B"/>
<path d="M112.112 218.928C112.112 218.928 112.912 268.68 111.184 279.976C109.456 291.272 86.9838 325.984 86.9838 325.984L78.8398 321.896C78.8398 321.896 96.8318 284.688 97.3278 279.856C97.8238 275.024 93.1438 235.472 93.1438 235.472L112.112 218.928Z" fill="#263238"/>
<path opacity="0.1" d="M93.1438 235.472C93.1438 235.472 93.3118 236.96 93.5998 239.4C93.9758 242.68 94.5438 247.68 95.1198 253.08C96.3278 264.28 97.5998 277.216 97.3278 279.848C96.8318 284.648 78.8398 321.896 78.8398 321.896L86.9838 325.976C86.9838 325.976 109.504 291.264 111.2 280C112.896 268.736 112.128 218.952 112.128 218.952L93.1438 235.472Z" fill="white"/>
<path d="M115.2 216.744C115.2 216.744 137.856 247.832 145.256 260.04C153.368 273.416 165.024 321.12 165.024 321.12L157.344 325.648C157.344 325.648 143.976 282.448 135.088 269.648C125.152 255.392 100.256 227.816 100.256 227.816L115.2 216.744Z" fill="#263238"/>
<g opacity="0.1">
<path d="M115.2 216.744C115.2 216.744 137.856 247.832 145.256 260.04C153.368 273.416 165.024 321.12 165.024 321.12L157.344 325.648C157.344 325.648 143.976 282.448 135.088 269.648C125.152 255.392 100.256 227.816 100.256 227.816L115.2 216.744Z" fill="white"/>
</g>
<path d="M165.361 327.999H159.425C159.328 328.002 159.235 328.036 159.16 328.097C159.085 328.158 159.031 328.241 159.009 328.335L158.009 332.663C157.986 332.769 157.987 332.878 158.012 332.983C158.037 333.087 158.086 333.185 158.155 333.268C158.223 333.351 158.31 333.418 158.408 333.463C158.506 333.508 158.613 333.53 158.721 333.527C160.625 333.527 162.017 333.375 164.425 333.367C165.905 333.367 170.361 333.511 172.425 333.503C174.489 333.495 174.745 331.479 173.913 331.303C170.169 330.503 167.353 329.367 166.161 328.287C165.939 328.096 165.654 327.993 165.361 327.999Z" fill="#263238"/>
<path d="M94.7682 191.199C97.631 194.193 100.232 197.426 102.544 200.863C102.672 201.959 103.44 204.351 103.48 205.495C102.512 204.783 100.64 203.239 99.6002 202.567C97.3522 198.231 95.4322 193.655 93.8242 191.655L94.7682 191.199Z" fill="#135BF2"/>
<path d="M95.3368 192.656L95.1848 190.048L93.2648 190.064L92.3848 191.336L95.3368 192.656Z" fill="#135BF2"/>
<path d="M93.1921 190.096C91.7833 190.813 90.2365 191.217 88.6571 191.282C87.0777 191.347 85.5029 191.071 84.0401 190.472C84.8401 188.472 83.9201 185.496 82.5761 182.816C81.8436 181.354 81.0096 179.945 80.0801 178.6L88.6001 181.144C88.8801 182.808 89.3201 184.344 90.3361 185.232C90.7592 185.574 91.2569 185.813 91.7891 185.928C92.3212 186.044 92.873 186.032 93.4001 185.896C94.4961 186.704 96.0001 188.8 93.1921 190.096Z" fill="#E4897B"/>
<path d="M93.2645 190.064C93.2645 190.064 92.8085 191.888 92.1685 193.784C89.8885 193.648 84.4085 192.984 83.4805 190.512C83.4975 189.897 83.7297 189.308 84.1365 188.848C87.0942 189.74 90.1763 190.151 93.2645 190.064Z" fill="white"/>
<path d="M93.2649 190.064C94.5315 190.426 95.7407 190.964 96.8569 191.664C97.7609 190.136 94.4569 186.064 93.7449 185.8C92.7195 185.438 91.6232 185.323 90.5449 185.464C91.9802 186.616 92.9471 188.251 93.2649 190.064Z" fill="white"/>
<path opacity="0.2" d="M90.3361 185.231C87.5776 185.162 84.8921 184.331 82.5761 182.831C81.8436 181.369 81.0096 179.961 80.0801 178.615L88.6001 181.159C88.8801 182.807 89.3201 184.359 90.3361 185.231Z" fill="black"/>
<path d="M126.768 230.992L118.48 233.272L111.152 224.624L110.832 236.336L92.3843 242.032C92.598 237.106 92.1813 232.172 91.1443 227.352C91.1043 227.184 91.0643 227.016 91.0083 226.832C90.0963 223.488 87.2403 217.344 84.2643 211.4C80.2643 203.4 76.0723 195.776 76.0723 195.776C77.9207 193.699 80.106 191.949 82.5363 190.6C82.5363 190.6 93.2563 197.632 103.48 205.488C103.48 205.488 101.08 188.352 92.9923 184.776C95.5646 183.39 98.3491 182.441 101.232 181.968C101.232 181.968 113.232 195.328 117.184 216.928L126.768 230.992Z" fill="#263238"/>
<path opacity="0.1" d="M90.3518 197.495L89.7038 203.999C89.7038 203.999 101.368 204.583 109.824 212.559L105.416 207.559L106.048 194.111L100.6 192.279L102.472 187.303C102.472 187.303 96.0718 184.103 92.9918 184.775C101.064 188.351 103.48 205.487 103.48 205.487C93.2558 197.631 82.5278 190.599 82.5278 190.599C81.5494 193.575 81.4247 196.765 82.1678 199.807L90.3518 197.495Z" fill="white"/>
<path d="M89.8872 166.688C91.1512 168.176 92.3432 171.816 89.4632 171.688C86.5832 171.56 87.7192 164.136 89.8872 166.688Z" fill="#263238"/>
<path d="M78.5199 174.215C80.1199 178.735 80.8159 181.415 83.8159 183.135C88.3199 185.647 93.4159 181.863 93.1679 176.943C92.9759 172.519 90.3919 165.879 85.3759 165.383C84.2641 165.272 83.1422 165.445 82.1155 165.886C81.0888 166.327 80.1908 167.021 79.5056 167.903C78.8204 168.786 78.3706 169.828 78.1982 170.932C78.0258 172.036 78.1365 173.166 78.5199 174.215Z" fill="#E4897B"/>
<path d="M80.5913 170.52L78.5193 165.6C78.5193 165.6 73.1113 167.424 74.4793 170C72.1833 172.664 75.4633 176.6 80.2953 177.2C81.7113 174.592 79.7273 170.576 79.7273 170.576C79.9993 170.552 80.2953 170.536 80.5913 170.52Z" fill="#263238"/>
<path d="M77.8397 178.559C78.1708 179.053 78.5965 179.476 79.0922 179.805C79.5879 180.133 80.1438 180.359 80.7277 180.471C82.3277 180.759 82.9437 179.319 82.3997 177.903C81.9117 176.639 80.5037 174.959 78.9837 175.303C78.6527 175.387 78.3475 175.552 78.0955 175.783C77.8434 176.013 77.6523 176.302 77.539 176.625C77.4258 176.947 77.394 177.292 77.4465 177.63C77.4989 177.967 77.634 178.287 77.8397 178.559Z" fill="#E4897B"/>
<path d="M85.8482 173.439C85.9602 173.807 86.2402 174.055 86.4882 173.983C86.7362 173.911 86.8402 173.551 86.7362 173.183C86.6322 172.815 86.3442 172.559 86.1042 172.631C85.8642 172.703 85.7442 173.063 85.8482 173.439Z" fill="#263238"/>
<path d="M90.0794 172.184C90.1834 172.56 90.4714 172.8 90.7114 172.728C90.9514 172.656 91.0714 172.296 90.9594 171.928C90.8474 171.56 90.5674 171.312 90.3274 171.384C90.0874 171.456 89.9674 171.808 90.0794 172.184Z" fill="#263238"/>
<path d="M88.8008 172.8C89.5763 173.772 90.4837 174.631 91.4968 175.352C91.2869 175.596 91.0282 175.793 90.7375 175.931C90.4468 176.068 90.1304 176.144 89.8088 176.152L88.8008 172.8Z" fill="#DE5753"/>
<path d="M88.1606 178.247C88.3304 178.239 88.4992 178.215 88.6646 178.175C88.6951 178.17 88.7221 178.152 88.74 178.127C88.7579 178.101 88.7653 178.07 88.7606 178.039C88.7515 178.011 88.733 177.987 88.7083 177.971C88.6835 177.955 88.6539 177.948 88.6246 177.951C88.1536 178.065 87.6623 178.064 87.1918 177.948C86.7214 177.833 86.2855 177.606 85.9206 177.287C85.8986 177.268 85.8701 177.257 85.8406 177.257C85.8111 177.257 85.7826 177.268 85.7606 177.287C85.7487 177.298 85.7391 177.311 85.7326 177.325C85.726 177.34 85.7227 177.355 85.7227 177.371C85.7227 177.387 85.726 177.403 85.7326 177.417C85.7391 177.432 85.7487 177.445 85.7606 177.455C86.0859 177.743 86.4665 177.962 86.8791 178.098C87.2917 178.235 87.7277 178.285 88.1606 178.247Z" fill="#263238"/>
<path d="M83.7599 171.88C83.7948 171.901 83.835 171.912 83.8759 171.912C83.9168 171.912 83.9569 171.901 83.9919 171.88C84.2332 171.723 84.5079 171.624 84.7941 171.592C85.0802 171.561 85.3698 171.596 85.6399 171.696C85.6672 171.709 85.6969 171.718 85.7274 171.72C85.7579 171.722 85.7885 171.718 85.8175 171.709C85.8465 171.699 85.8733 171.684 85.8963 171.664C85.9194 171.643 85.9383 171.619 85.9519 171.592C85.9745 171.536 85.9756 171.474 85.9549 171.418C85.9342 171.362 85.8931 171.315 85.8399 171.288C85.5006 171.153 85.1339 171.101 84.7705 171.137C84.4072 171.173 84.0578 171.296 83.7519 171.496C83.7257 171.511 83.7029 171.531 83.6846 171.554C83.6664 171.578 83.6532 171.606 83.6457 171.635C83.6382 171.664 83.6367 171.694 83.6412 171.724C83.6457 171.754 83.6561 171.782 83.6719 171.808C83.696 171.837 83.7259 171.862 83.7599 171.88Z" fill="#263238"/>
<path d="M91.5753 169.223C91.5912 169.179 91.5912 169.131 91.5753 169.087C91.5673 169.029 91.5371 168.975 91.491 168.938C91.4449 168.901 91.3863 168.883 91.3273 168.887C90.966 168.921 90.6178 169.04 90.3117 169.234C90.0056 169.429 89.7504 169.694 89.5673 170.007C89.5537 170.034 89.5456 170.063 89.5435 170.093C89.5414 170.123 89.5453 170.153 89.555 170.181C89.5647 170.21 89.58 170.236 89.6 170.258C89.6199 170.281 89.6442 170.299 89.6713 170.311C89.6975 170.325 89.7262 170.334 89.7557 170.336C89.7853 170.339 89.8151 170.336 89.8433 170.327C89.8716 170.318 89.8978 170.304 89.9205 170.284C89.9431 170.265 89.9618 170.242 89.9753 170.215C90.1212 169.968 90.3247 169.76 90.5684 169.608C90.8122 169.456 91.089 169.365 91.3753 169.343C91.4166 169.345 91.4574 169.334 91.4929 169.313C91.5283 169.291 91.5569 169.26 91.5753 169.223Z" fill="#263238"/>
<path d="M79.0397 173.328C79.0397 173.328 81.6397 170.928 82.3037 168.528C82.3037 168.528 85.4157 168.08 86.4717 168.976C86.6458 168.638 86.6864 168.248 86.5856 167.882C86.4848 167.515 86.25 167.201 85.9277 167C85.9277 167 88.2077 166.56 89.2317 167.8C89.509 167.49 89.6778 167.098 89.7124 166.684C89.7471 166.27 89.6457 165.855 89.4237 165.504C89.847 165.546 90.2532 165.693 90.6062 165.93C90.9593 166.167 91.2484 166.488 91.4477 166.864C91.4477 166.864 91.7277 161.056 83.4957 162.864C83.9867 162.422 84.5459 162.063 85.1517 161.8C85.1517 161.8 78.9117 161.904 75.5517 165.664C72.1917 169.424 74.4797 172.92 79.0397 173.328Z" fill="#263238"/>
<path d="M83.7042 327.999H77.7762C77.6796 328.002 77.5865 328.036 77.5113 328.097C77.4361 328.158 77.383 328.242 77.3602 328.336L76.3602 332.663C76.3373 332.768 76.3383 332.877 76.3632 332.981C76.3881 333.085 76.4361 333.182 76.5038 333.265C76.5715 333.348 76.657 333.415 76.754 333.46C76.851 333.506 76.9571 333.529 77.0642 333.528C78.9762 333.528 80.3682 333.375 82.7762 333.367C84.2562 333.367 88.7122 333.512 90.7762 333.504C92.8402 333.496 93.0962 331.48 92.2642 331.304C88.5202 330.504 85.7042 329.367 84.5122 328.287C84.2883 328.094 84 327.991 83.7042 327.999Z" fill="#263238"/>
<path d="M69.408 334.824C68.336 334.824 67.248 334.824 66.136 334.72C65.9784 334.71 65.8243 334.67 65.6823 334.601C65.5403 334.532 65.4133 334.436 65.3086 334.318C65.2038 334.199 65.1234 334.062 65.0718 333.913C65.0202 333.763 64.9986 333.606 65.008 333.448C65.0175 333.29 65.0579 333.136 65.1269 332.994C65.196 332.852 65.2923 332.725 65.4104 332.62C65.5285 332.516 65.6661 332.435 65.8153 332.384C65.9645 332.332 66.1224 332.31 66.28 332.32C77.48 333 86.392 330.08 92.768 323.632C105.352 310.904 104.768 287.8 104.24 281.016C101.456 242.424 110.784 209.344 110.88 209.016L110.944 208.856L164.192 90.9199C165.835 87.282 168.492 84.1952 171.845 82.0298C175.198 79.8644 179.104 78.7124 183.096 78.7119H215.656C220.507 78.7042 225.237 80.224 229.176 83.0559L298.576 132.8C298.835 132.986 299.009 133.266 299.061 133.581C299.113 133.895 299.038 134.217 298.852 134.476C298.666 134.735 298.386 134.909 298.071 134.961C297.757 135.013 297.435 134.938 297.176 134.752L227.776 85.0319C224.245 82.4926 220.005 81.1295 215.656 81.1359H183.096C179.572 81.134 176.122 82.1489 173.161 84.0589C170.199 85.9689 167.852 88.6929 166.4 91.9039L113.168 209.752C112.656 211.592 103.952 243.616 106.632 280.848C107.288 289.864 107.432 312.24 94.472 325.32C88.232 331.632 79.816 334.824 69.408 334.824Z" fill="#135BF2"/>
<path opacity="0.4" d="M69.408 334.824C68.336 334.824 67.248 334.824 66.136 334.72C65.9784 334.71 65.8243 334.67 65.6823 334.601C65.5403 334.532 65.4133 334.436 65.3086 334.318C65.2038 334.199 65.1234 334.062 65.0718 333.913C65.0202 333.763 64.9986 333.606 65.008 333.448C65.0175 333.29 65.0579 333.136 65.1269 332.994C65.196 332.852 65.2923 332.725 65.4104 332.62C65.5285 332.516 65.6661 332.435 65.8153 332.384C65.9645 332.332 66.1224 332.31 66.28 332.32C77.48 333 86.392 330.08 92.768 323.632C105.352 310.904 104.768 287.8 104.24 281.016C101.456 242.424 110.784 209.344 110.88 209.016L110.944 208.856L164.192 90.9199C165.835 87.282 168.492 84.1952 171.845 82.0298C175.198 79.8644 179.104 78.7124 183.096 78.7119H215.656C220.507 78.7042 225.237 80.224 229.176 83.0559L298.576 132.8C298.835 132.986 299.009 133.266 299.061 133.581C299.113 133.895 299.038 134.217 298.852 134.476C298.666 134.735 298.386 134.909 298.071 134.961C297.757 135.013 297.435 134.938 297.176 134.752L227.776 85.0319C224.245 82.4926 220.005 81.1295 215.656 81.1359H183.096C179.572 81.134 176.122 82.1489 173.161 84.0589C170.199 85.9689 167.852 88.6929 166.4 91.9039L113.168 209.752C112.656 211.592 103.952 243.616 106.632 280.848C107.288 289.864 107.432 312.24 94.472 325.32C88.232 331.632 79.816 334.824 69.408 334.824Z" fill="white"/>
<path opacity="0.3" d="M110.296 209.343C110.296 209.343 99.9997 222.263 91.0077 226.831C90.0957 223.487 87.2397 217.343 84.2637 211.399C85.4717 208.015 86.6637 205.487 86.6637 205.487C88.4889 207.051 90.1193 208.83 91.5197 210.783C97.2757 210.346 102.95 209.16 108.4 207.255L110.296 209.343Z" fill="black"/>
<path d="M111.489 206.04C111.489 206.04 107.129 205.24 106.801 207.472L107.761 210.216L112.033 211.296C112.377 211.385 112.742 211.351 113.065 211.2L114.937 210.32C115.176 210.207 115.382 210.034 115.535 209.818C115.687 209.602 115.782 209.351 115.809 209.088L116.001 207.2C116.028 206.96 115.998 206.718 115.914 206.493C115.83 206.267 115.694 206.064 115.517 205.901C115.341 205.737 115.128 205.618 114.897 205.551C114.665 205.485 114.421 205.474 114.185 205.52L111.489 206.04Z" fill="#E4897B"/>
<path d="M107.616 211.432L108.84 210.808L106.544 207.256L105.32 208.088L107.616 211.432Z" fill="#135BF2"/>
<path opacity="0.7" d="M107.616 211.432L108.84 210.808L106.544 207.256L105.32 208.088L107.616 211.432Z" fill="white"/>
<path d="M76.0646 195.775C74.7526 198.175 82.5926 218.927 85.6646 221.431C89.5446 224.535 108.801 211.999 108.801 211.999L105.385 207.559C105.385 207.559 90.1846 213.015 89.5366 212.559C88.8886 212.103 86.2646 204.559 86.2646 204.559C86.2646 204.559 83.6006 200.463 80.7686 198.343C79.3741 197.202 77.7788 196.331 76.0646 195.775Z" fill="#263238"/>
<path d="M181.953 79.3994C178.744 79.3994 175.607 80.3509 172.939 82.1336C170.271 83.9164 168.191 86.4502 166.964 89.4148C165.736 92.3793 165.414 95.6414 166.04 98.7886C166.666 101.936 168.211 104.827 170.48 107.096C172.749 109.364 175.64 110.91 178.787 111.536C181.935 112.162 185.197 111.84 188.161 110.612C191.126 109.384 193.66 107.305 195.442 104.637C197.225 101.969 198.177 98.8322 198.177 95.6234C198.174 91.3212 196.464 87.1958 193.422 84.1537C190.38 81.1115 186.255 79.4015 181.953 79.3994ZM172.353 98.4714C171.789 98.4714 171.239 98.3044 170.77 97.9914C170.302 97.6785 169.937 97.2337 169.721 96.7133C169.506 96.1929 169.449 95.6203 169.559 95.0678C169.669 94.5153 169.94 94.0079 170.339 93.6096C170.737 93.2113 171.244 92.94 171.797 92.8301C172.349 92.7202 172.922 92.7766 173.442 92.9922C173.963 93.2078 174.408 93.5728 174.721 94.0412C175.033 94.5095 175.201 95.0601 175.201 95.6234C175.201 96.3787 174.9 97.1032 174.366 97.6373C173.832 98.1714 173.108 98.4714 172.353 98.4714ZM181.953 108.071C181.389 108.071 180.839 107.904 180.37 107.591C179.902 107.279 179.537 106.834 179.321 106.313C179.106 105.793 179.049 105.22 179.159 104.668C179.269 104.115 179.54 103.608 179.939 103.21C180.337 102.811 180.844 102.54 181.397 102.43C181.949 102.32 182.522 102.377 183.042 102.592C183.563 102.808 184.008 103.173 184.321 103.641C184.633 104.11 184.801 104.66 184.801 105.223C184.801 105.979 184.5 106.703 183.966 107.237C183.432 107.771 182.708 108.071 181.953 108.071ZM181.953 88.8714C181.389 88.8714 180.839 88.7044 180.37 88.3914C179.902 88.0785 179.537 87.6337 179.321 87.1133C179.106 86.5929 179.049 86.0203 179.159 85.4678C179.269 84.9153 179.54 84.4079 179.939 84.0096C180.337 83.6113 180.844 83.34 181.397 83.2301C181.949 83.1202 182.522 83.1766 183.042 83.3922C183.563 83.6078 184.008 83.9728 184.321 84.4412C184.633 84.9095 184.801 85.4601 184.801 86.0234C184.802 86.3981 184.729 86.7693 184.586 87.1158C184.443 87.4622 184.234 87.7771 183.969 88.0424C183.705 88.3077 183.39 88.5182 183.044 88.6619C182.698 88.8055 182.327 88.8794 181.953 88.8794V88.8714ZM191.553 98.4714C190.989 98.4714 190.439 98.3044 189.97 97.9914C189.502 97.6785 189.137 97.2337 188.921 96.7133C188.706 96.1929 188.649 95.6203 188.759 95.0678C188.869 94.5153 189.14 94.0079 189.539 93.6096C189.937 93.2113 190.444 92.94 190.997 92.8301C191.549 92.7202 192.122 92.7766 192.642 92.9922C193.163 93.2078 193.608 93.5728 193.921 94.0412C194.233 94.5095 194.401 95.0601 194.401 95.6234C194.401 95.9981 194.327 96.3691 194.183 96.7151C194.039 97.0612 193.829 97.3755 193.564 97.6401C193.298 97.9047 192.983 98.1143 192.637 98.2569C192.29 98.3996 191.919 98.4725 191.545 98.4714H191.553Z" fill="#263238"/>
<path opacity="0.4" d="M181.953 79.3994C178.744 79.3994 175.607 80.3509 172.939 82.1336C170.271 83.9164 168.191 86.4502 166.964 89.4148C165.736 92.3793 165.414 95.6414 166.04 98.7886C166.666 101.936 168.211 104.827 170.48 107.096C172.749 109.364 175.64 110.91 178.787 111.536C181.935 112.162 185.197 111.84 188.161 110.612C191.126 109.384 193.66 107.305 195.442 104.637C197.225 101.969 198.177 98.8322 198.177 95.6234C198.174 91.3212 196.464 87.1958 193.422 84.1537C190.38 81.1115 186.255 79.4015 181.953 79.3994ZM172.353 98.4714C171.789 98.4714 171.239 98.3044 170.77 97.9914C170.302 97.6785 169.937 97.2337 169.721 96.7133C169.506 96.1929 169.449 95.6203 169.559 95.0678C169.669 94.5153 169.94 94.0079 170.339 93.6096C170.737 93.2113 171.244 92.94 171.797 92.8301C172.349 92.7202 172.922 92.7766 173.442 92.9922C173.963 93.2078 174.408 93.5728 174.721 94.0412C175.033 94.5095 175.201 95.0601 175.201 95.6234C175.201 96.3787 174.9 97.1032 174.366 97.6373C173.832 98.1714 173.108 98.4714 172.353 98.4714ZM181.953 108.071C181.389 108.071 180.839 107.904 180.37 107.591C179.902 107.279 179.537 106.834 179.321 106.313C179.106 105.793 179.049 105.22 179.159 104.668C179.269 104.115 179.54 103.608 179.939 103.21C180.337 102.811 180.844 102.54 181.397 102.43C181.949 102.32 182.522 102.377 183.042 102.592C183.563 102.808 184.008 103.173 184.321 103.641C184.633 104.11 184.801 104.66 184.801 105.223C184.801 105.979 184.5 106.703 183.966 107.237C183.432 107.771 182.708 108.071 181.953 108.071ZM181.953 88.8714C181.389 88.8714 180.839 88.7044 180.37 88.3914C179.902 88.0785 179.537 87.6337 179.321 87.1133C179.106 86.5929 179.049 86.0203 179.159 85.4678C179.269 84.9153 179.54 84.4079 179.939 84.0096C180.337 83.6113 180.844 83.34 181.397 83.2301C181.949 83.1202 182.522 83.1766 183.042 83.3922C183.563 83.6078 184.008 83.9728 184.321 84.4412C184.633 84.9095 184.801 85.4601 184.801 86.0234C184.802 86.3981 184.729 86.7693 184.586 87.1158C184.443 87.4622 184.234 87.7771 183.969 88.0424C183.705 88.3077 183.39 88.5182 183.044 88.6619C182.698 88.8055 182.327 88.8794 181.953 88.8794V88.8714ZM191.553 98.4714C190.989 98.4714 190.439 98.3044 189.97 97.9914C189.502 97.6785 189.137 97.2337 188.921 96.7133C188.706 96.1929 188.649 95.6203 188.759 95.0678C188.869 94.5153 189.14 94.0079 189.539 93.6096C189.937 93.2113 190.444 92.94 190.997 92.8301C191.549 92.7202 192.122 92.7766 192.642 92.9922C193.163 93.2078 193.608 93.5728 193.921 94.0412C194.233 94.5095 194.401 95.0601 194.401 95.6234C194.401 95.9981 194.327 96.3691 194.183 96.7151C194.039 97.0612 193.829 97.3755 193.564 97.6401C193.298 97.9047 192.983 98.1143 192.637 98.2569C192.29 98.3996 191.919 98.4725 191.545 98.4714H191.553Z" fill="white"/>
<path opacity="0.2" d="M181.952 100.992C184.917 100.992 187.32 98.5885 187.32 95.6239C187.32 92.6592 184.917 90.2559 181.952 90.2559C178.987 90.2559 176.584 92.6592 176.584 95.6239C176.584 98.5885 178.987 100.992 181.952 100.992Z" fill="black"/>
<g opacity="0.2">
<path d="M181.951 110.712C178.967 110.712 176.05 109.827 173.569 108.169C171.088 106.511 169.154 104.155 168.012 101.398C166.87 98.6411 166.571 95.6074 167.153 92.6806C167.735 89.7538 169.172 87.0654 171.282 84.9553C173.393 82.8452 176.081 81.4082 179.008 80.8261C181.935 80.2439 184.968 80.5427 187.725 81.6846C190.482 82.8266 192.839 84.7605 194.497 87.2417C196.154 89.7229 197.039 92.64 197.039 95.6241C197.035 99.6244 195.444 103.46 192.615 106.288C189.787 109.117 185.952 110.708 181.951 110.712ZM181.951 81.5041C179.158 81.5026 176.428 82.3293 174.104 83.8799C171.781 85.4305 169.97 87.6352 168.9 90.2151C167.83 92.7951 167.55 95.6344 168.094 98.3739C168.638 101.113 169.982 103.63 171.956 105.606C173.931 107.581 176.446 108.927 179.186 109.472C181.925 110.018 184.764 109.739 187.345 108.67C189.925 107.602 192.131 105.792 193.683 103.47C195.235 101.147 196.063 98.4172 196.063 95.6241C196.059 91.882 194.571 88.2942 191.926 85.6473C189.28 83.0004 185.693 81.5105 181.951 81.5041Z" fill="black"/>
</g>
<path d="M181.952 100.088C184.418 100.088 186.416 98.0896 186.416 95.6242C186.416 93.1588 184.418 91.1602 181.952 91.1602C179.487 91.1602 177.488 93.1588 177.488 95.6242C177.488 98.0896 179.487 100.088 181.952 100.088Z" fill="#263238"/>
<path d="M215.753 79.3994C212.545 79.4042 209.411 80.3597 206.746 82.1453C204.081 83.9309 202.005 86.4664 200.781 89.4314C199.557 92.3964 199.239 95.6577 199.867 98.8033C200.496 101.949 202.043 104.837 204.313 107.104C206.583 109.371 209.474 110.913 212.62 111.537C215.767 112.161 219.028 111.839 221.991 110.61C224.954 109.381 227.487 107.302 229.268 104.635C231.05 101.967 232.001 98.8312 232.001 95.6234C232.001 93.4908 231.58 91.3792 230.763 89.4092C229.947 87.4393 228.749 85.6497 227.24 84.1428C225.731 82.636 223.94 81.4414 221.969 80.6275C219.998 79.8136 217.885 79.3963 215.753 79.3994ZM206.153 98.4714C205.589 98.4714 205.039 98.3044 204.57 97.9915C204.102 97.6785 203.737 97.2337 203.522 96.7133C203.306 96.1929 203.25 95.6203 203.359 95.0678C203.469 94.5154 203.741 94.0079 204.139 93.6096C204.537 93.2113 205.045 92.94 205.597 92.8302C206.15 92.7203 206.722 92.7767 207.243 92.9922C207.763 93.2078 208.208 93.5728 208.521 94.0412C208.834 94.5095 209.001 95.0602 209.001 95.6234C209.001 96.3774 208.702 97.1006 208.169 97.6344C207.637 98.1683 206.915 98.4693 206.161 98.4714H206.153ZM215.753 108.071C215.189 108.071 214.639 107.904 214.17 107.591C213.702 107.279 213.337 106.834 213.122 106.313C212.906 105.793 212.85 105.22 212.959 104.668C213.069 104.115 213.341 103.608 213.739 103.21C214.137 102.811 214.645 102.54 215.197 102.43C215.75 102.32 216.322 102.377 216.843 102.592C217.363 102.808 217.808 103.173 218.121 103.641C218.434 104.11 218.601 104.66 218.601 105.223C218.599 105.978 218.298 106.701 217.764 107.235C217.231 107.769 216.507 108.069 215.753 108.071ZM215.753 88.8714C215.189 88.8714 214.639 88.7044 214.17 88.3915C213.702 88.0785 213.337 87.6337 213.122 87.1133C212.906 86.5929 212.85 86.0203 212.959 85.4678C213.069 84.9154 213.341 84.4079 213.739 84.0096C214.137 83.6113 214.645 83.34 215.197 83.2302C215.75 83.1203 216.322 83.1767 216.843 83.3922C217.363 83.6078 217.808 83.9728 218.121 84.4412C218.434 84.9095 218.601 85.4601 218.601 86.0234C218.601 86.7795 218.301 87.5047 217.767 88.0401C217.233 88.5755 216.509 88.8773 215.753 88.8794V88.8714ZM225.353 98.4714C224.789 98.4714 224.239 98.3044 223.77 97.9915C223.302 97.6785 222.937 97.2337 222.722 96.7133C222.506 96.1929 222.45 95.6203 222.559 95.0678C222.669 94.5154 222.941 94.0079 223.339 93.6096C223.737 93.2113 224.245 92.94 224.797 92.8302C225.35 92.7203 225.922 92.7767 226.443 92.9922C226.963 93.2078 227.408 93.5728 227.721 94.0412C228.034 94.5095 228.201 95.0602 228.201 95.6234C228.201 96.3788 227.901 97.1032 227.367 97.6373C226.832 98.1714 226.108 98.4714 225.353 98.4714Z" fill="#263238"/>
<path opacity="0.4" d="M215.753 79.3994C212.545 79.4042 209.411 80.3597 206.746 82.1453C204.081 83.9309 202.005 86.4664 200.781 89.4314C199.557 92.3964 199.239 95.6577 199.867 98.8033C200.496 101.949 202.043 104.837 204.313 107.104C206.583 109.371 209.474 110.913 212.62 111.537C215.767 112.161 219.028 111.839 221.991 110.61C224.954 109.381 227.487 107.302 229.268 104.635C231.05 101.967 232.001 98.8312 232.001 95.6234C232.001 93.4908 231.58 91.3792 230.763 89.4092C229.947 87.4393 228.749 85.6497 227.24 84.1428C225.731 82.636 223.94 81.4414 221.969 80.6275C219.998 79.8136 217.885 79.3963 215.753 79.3994ZM206.153 98.4714C205.589 98.4714 205.039 98.3044 204.57 97.9915C204.102 97.6785 203.737 97.2337 203.522 96.7133C203.306 96.1929 203.25 95.6203 203.359 95.0678C203.469 94.5154 203.741 94.0079 204.139 93.6096C204.537 93.2113 205.045 92.94 205.597 92.8302C206.15 92.7203 206.722 92.7767 207.243 92.9922C207.763 93.2078 208.208 93.5728 208.521 94.0412C208.834 94.5095 209.001 95.0602 209.001 95.6234C209.001 96.3774 208.702 97.1006 208.169 97.6344C207.637 98.1683 206.915 98.4693 206.161 98.4714H206.153ZM215.753 108.071C215.189 108.071 214.639 107.904 214.17 107.591C213.702 107.279 213.337 106.834 213.122 106.313C212.906 105.793 212.85 105.22 212.959 104.668C213.069 104.115 213.341 103.608 213.739 103.21C214.137 102.811 214.645 102.54 215.197 102.43C215.75 102.32 216.322 102.377 216.843 102.592C217.363 102.808 217.808 103.173 218.121 103.641C218.434 104.11 218.601 104.66 218.601 105.223C218.599 105.978 218.298 106.701 217.764 107.235C217.231 107.769 216.507 108.069 215.753 108.071ZM215.753 88.8714C215.189 88.8714 214.639 88.7044 214.17 88.3915C213.702 88.0785 213.337 87.6337 213.122 87.1133C212.906 86.5929 212.85 86.0203 212.959 85.4678C213.069 84.9154 213.341 84.4079 213.739 84.0096C214.137 83.6113 214.645 83.34 215.197 83.2302C215.75 83.1203 216.322 83.1767 216.843 83.3922C217.363 83.6078 217.808 83.9728 218.121 84.4412C218.434 84.9095 218.601 85.4601 218.601 86.0234C218.601 86.7795 218.301 87.5047 217.767 88.0401C217.233 88.5755 216.509 88.8773 215.753 88.8794V88.8714ZM225.353 98.4714C224.789 98.4714 224.239 98.3044 223.77 97.9915C223.302 97.6785 222.937 97.2337 222.722 96.7133C222.506 96.1929 222.45 95.6203 222.559 95.0678C222.669 94.5154 222.941 94.0079 223.339 93.6096C223.737 93.2113 224.245 92.94 224.797 92.8302C225.35 92.7203 225.922 92.7767 226.443 92.9922C226.963 93.2078 227.408 93.5728 227.721 94.0412C228.034 94.5095 228.201 95.0602 228.201 95.6234C228.201 96.3788 227.901 97.1032 227.367 97.6373C226.832 98.1714 226.108 98.4714 225.353 98.4714Z" fill="white"/>
<path opacity="0.2" d="M221.121 95.6239C221.121 96.6856 220.806 97.7234 220.216 98.6062C219.626 99.4889 218.788 100.177 217.807 100.583C216.826 100.99 215.747 101.096 214.706 100.889C213.664 100.682 212.708 100.17 211.957 99.4196C211.206 98.6689 210.695 97.7124 210.488 96.6711C210.281 95.6298 210.387 94.5505 210.793 93.5696C211.2 92.5887 211.888 91.7504 212.77 91.1605C213.653 90.5707 214.691 90.2559 215.753 90.2559C216.458 90.2548 217.157 90.3929 217.808 90.6623C218.46 90.9317 219.052 91.3271 219.551 91.8258C220.05 92.3244 220.445 92.9166 220.714 93.5684C220.984 94.2201 221.122 94.9186 221.121 95.6239Z" fill="black"/>
<g opacity="0.2">
<path d="M215.752 110.712C212.768 110.711 209.852 109.824 207.372 108.165C204.891 106.507 202.959 104.15 201.818 101.393C200.677 98.6354 200.38 95.602 200.963 92.6757C201.546 89.7495 202.983 87.0618 205.094 84.9525C207.204 82.8432 209.893 81.407 212.819 80.8255C215.746 80.2439 218.779 80.5432 221.536 81.6854C224.292 82.8276 226.648 84.7615 228.306 87.2425C229.963 89.7236 230.848 92.6404 230.848 95.6241C230.844 99.6258 229.252 103.462 226.421 106.291C223.591 109.12 219.754 110.71 215.752 110.712ZM215.752 81.5041C212.959 81.5041 210.229 82.3323 207.907 83.8838C205.585 85.4353 203.775 87.6406 202.707 90.2206C201.638 92.8007 201.358 95.6398 201.903 98.3788C202.448 101.118 203.793 103.634 205.768 105.608C207.742 107.583 210.258 108.928 212.997 109.473C215.736 110.018 218.575 109.738 221.155 108.669C223.735 107.601 225.941 105.791 227.492 103.469C229.044 101.147 229.872 98.4168 229.872 95.6241C229.87 91.8799 228.381 88.2897 225.734 85.6421C223.086 82.9946 219.496 81.5063 215.752 81.5041Z" fill="black"/>
</g>
<path d="M215.751 100.088C218.217 100.088 220.215 98.0896 220.215 95.6242C220.215 93.1588 218.217 91.1602 215.751 91.1602C213.286 91.1602 211.287 93.1588 211.287 95.6242C211.287 98.0896 213.286 100.088 215.751 100.088Z" fill="#263238"/>
<path d="M215.727 87.3755C214.004 87.3791 212.335 86.772 211.017 85.6618C209.699 84.5517 208.817 83.0103 208.527 81.3115L206.503 69.4395H191.199L189.167 81.3115C188.878 83.0103 187.996 84.5517 186.678 85.6618C185.36 86.772 183.691 87.3791 181.967 87.3755C179.802 87.3511 177.712 88.1739 176.144 89.6684C174.576 91.1629 173.655 93.2109 173.575 95.3755C173.556 96.4553 173.752 97.5281 174.152 98.5313C174.552 99.5346 175.148 100.448 175.904 101.219C176.661 101.99 177.563 102.602 178.559 103.02C179.554 103.439 180.624 103.655 181.703 103.655H215.999C217.079 103.655 218.148 103.439 219.144 103.02C220.14 102.602 221.042 101.99 221.799 101.219C222.555 100.448 223.151 99.5346 223.551 98.5313C223.951 97.5281 224.147 96.4553 224.127 95.3755C224.048 93.2095 223.125 91.1603 221.556 89.6656C219.986 88.1708 217.895 87.3489 215.727 87.3755Z" fill="#263238"/>
<path opacity="0.2" d="M215.727 87.3755C214.004 87.3791 212.335 86.772 211.017 85.6618C209.699 84.5517 208.817 83.0103 208.527 81.3115L206.503 69.4395H191.199L189.167 81.3115C188.878 83.0103 187.996 84.5517 186.678 85.6618C185.36 86.772 183.691 87.3791 181.967 87.3755C179.802 87.3511 177.712 88.1739 176.144 89.6684C174.576 91.1629 173.655 93.2109 173.575 95.3755C173.556 96.4553 173.752 97.5281 174.152 98.5313C174.552 99.5346 175.148 100.448 175.904 101.219C176.661 101.99 177.563 102.602 178.559 103.02C179.554 103.439 180.624 103.655 181.703 103.655H215.999C217.079 103.655 218.148 103.439 219.144 103.02C220.14 102.602 221.042 101.99 221.799 101.219C222.555 100.448 223.151 99.5346 223.551 98.5313C223.951 97.5281 224.147 96.4553 224.127 95.3755C224.048 93.2095 223.125 91.1603 221.556 89.6656C219.986 88.1708 217.895 87.3489 215.727 87.3755Z" fill="white"/>
<path opacity="0.4" d="M181.952 100.088C184.418 100.088 186.416 98.0896 186.416 95.6242C186.416 93.1588 184.418 91.1602 181.952 91.1602C179.487 91.1602 177.488 93.1588 177.488 95.6242C177.488 98.0896 179.487 100.088 181.952 100.088Z" fill="white"/>
<path opacity="0.4" d="M215.751 100.088C218.217 100.088 220.215 98.0896 220.215 95.6242C220.215 93.1588 218.217 91.1602 215.751 91.1602C213.286 91.1602 211.287 93.1588 211.287 95.6242C211.287 98.0896 213.286 100.088 215.751 100.088Z" fill="white"/>
<path d="M186.4 68.2797H211.288V72.2797C211.276 72.6341 211.126 72.9698 210.871 73.2161C210.616 73.4624 210.275 73.5999 209.92 73.5997H187.784C187.424 73.604 187.077 73.4661 186.818 73.216C186.559 72.9659 186.409 72.6237 186.4 72.2637V68.2637V68.2797Z" fill="#263238"/>
<path opacity="0.4" d="M186.4 68.2797H211.288V72.2797C211.276 72.6341 211.126 72.9698 210.871 73.2161C210.616 73.4624 210.275 73.5999 209.92 73.5997H187.784C187.424 73.604 187.077 73.4661 186.818 73.216C186.559 72.9659 186.409 72.6237 186.4 72.2637V68.2637V68.2797Z" fill="white"/>
</svg>
